<?xml version="1.0" encoding="UTF-8"?>
<svg id="Logo" xmlns="http://www.w3.org/2000/svg" viewBox="0 0 885.59 119.32">
  <defs>
    <style>
      .cls-1 {
        fill: #263355;
      }

      .cls-2 {
        fill: #181a1b;
      }
    </style>
  </defs>
  <g>
    <path class="cls-2" d="M43.2,65.68s1.55-.13,3.23-.2v-13.24l-13.31-19.16c-1.08-.07-2.62-.2-2.62-.2-1.14-.07-1.01-1.82.13-1.75,0,0,4.03.27,6.32.27s6.32-.27,6.32-.27c1.14-.07,1.28,1.61.13,1.75,0,0-1.61.13-2.82.2l11.7,16.87c.4-.94,1.01-2.08,1.82-3.43,6.12-9.81,11.36-15.66,15.93-15.66,1.88,0,2.89,1.34,2.89,2.76,0,1.81-1.14,2.69-2.96,2.82-6.59.47-10.22,4.23-14.25,11.02-.87,1.48-2.82,4.64-2.82,10.08v7.93c1.75.07,3.23.2,3.23.2,1.14.13,1.01,1.81-.13,1.75,0,0-3.97-.27-6.32-.27s-6.32.27-6.32.27c-1.14.07-1.28-1.68-.13-1.75Z"/>
    <path class="cls-2" d="M71.4,67.88c-7.18,0-12.89-4.36-12.89-9.93s5.7-9.93,12.89-9.93,12.82,4.36,12.82,9.93-5.64,9.93-12.82,9.93ZM71.07,49.83c-3.76,0-5.84,3.29-5.84,7.18,0,5.1,2.48,9.06,6.51,9.06s5.84-3.29,5.84-7.52c0-4.7-2.48-8.72-6.51-8.72Z"/>
    <path class="cls-2" d="M85.95,62.85c0-1.61,1.14-2.48,2.68-2.48,2.15,0,2.55,1.88,3.83,3.49.94,1.14,2.35,2.21,5.44,2.21s5.57-.94,5.57-2.82c0-1.74-2.08-2.28-4.16-2.82l-5.17-1.28c-3.15-.81-7.11-1.81-7.11-5.44,0-4.16,4.7-5.7,10.47-5.7,3.15,0,5.64.67,7.32,1.68l.13-1.88c.07-1.14,1.81-1.01,1.74.13,0,0-.13,1.88-.13,2.89,0,1.21.13,2.89.13,2.89.07,1.14-1.54,1.28-1.74.13-.2-1.14-1.54-4.03-7.38-4.03-3.02,0-5.23.81-5.23,2.48,0,1.54,1.74,1.95,3.49,2.42l5.64,1.41c3.15.81,7.11,1.81,7.11,5.44,0,4.3-5.37,6.31-11.21,6.31s-11.41-1.61-11.41-5.03Z"/>
    <path class="cls-2" d="M135.68,62.71c0,1.81.87,3.15,2.82,3.15.6,0,1.28-.13,1.95-.47.94-.47,1.81,1.14.67,1.68-.94.47-2.42.81-3.76.81-4.43,0-7.78-1.81-7.78-6.38v-8.79c0-1.61-.67-2.42-2.28-2.42-4.09,0-7.92,4.63-7.92,10.07v5.1c1.68.07,3.15.2,3.15.2,1.14.13,1.01,1.81-.13,1.74,0,0-3.76-.27-5.97-.27s-5.97.27-5.97.27c-1.14.07-1.28-1.68-.13-1.74,0,0,1.54-.13,3.22-.2v-30.13c-1.74-.07-3.22-.2-3.22-.2-1.14-.13-1.01-1.81.13-1.74,0,0,3.69.27,5.97.27l2.95-.07v19.46c2.15-2.95,5.17-5.03,9.46-5.03,3.42,0,6.85,1.88,6.85,5.91v8.79Z"/>
    <path class="cls-2" d="M158.44,59.22c0-1.21,1.81-1.21,1.81,0,0,4.9-3.56,8.66-8.72,8.66-4.63,0-7.99-1.74-7.99-6.71v-11.34c-1.68-.07-3.22-.2-3.22-.2-1.14-.07-1.01-1.81.13-1.74,0,0,3.76.27,6.11.27s6.11-.27,6.11-.27c1.14-.07,1.27,1.61.13,1.74,0,0-1.48.13-3.15.2v12.55c0,2.21.81,3.49,3.02,3.49,3.02,0,5.77-2.82,5.77-6.64ZM150.26,33.65c0,2.01-1.61,3.62-3.62,3.62s-3.62-1.61-3.62-3.62,1.61-3.62,3.62-3.62,3.62,1.61,3.62,3.62Z"/>
  </g>
  <g>
    <path class="cls-2" d="M228.26,60c-1.96,0-3.17-1.28-3.17-2.84s1.01-2.7,2.77-2.77c1.35-.07,2.57-.74,2.57-2.23,0-1.35-1.28-2.16-3.17-2.16-5.06,0-8.98,5.13-8.98,10.6v5.13c1.69.07,3.17.2,3.17.2,1.15.14,1.01,1.82-.14,1.76,0,0-3.78-.27-6.01-.27s-6.01.27-6.01.27c-1.15.07-1.28-1.69-.14-1.76,0,0,1.55-.14,3.24-.2v-15.73c-1.76-.07-3.24-.2-3.24-.2-1.15-.14-1.01-1.82.14-1.76,0,0,3.71.27,6.01.27l2.97-.07v4.93c2.16-2.9,5.27-5,9.25-5s6.42,2.16,6.42,5.54c0,3.85-3.31,6.28-5.67,6.28Z"/>
    <path class="cls-2" d="M259.7,67.6s-3.71-.27-6.15-.27l-3.11.07v-2.09c-1.35,1.62-3.71,2.77-7.83,2.77-6.01,0-9.66-2.9-9.66-6.42s3.71-6.42,9.32-6.42c2.36,0,3.78.61,5.81.61,1.62,0,2.43-1.08,2.43-2.77,0-2.03-1.28-3.17-3.38-3.17-1.62,0-2.7.54-3.51,1.28-1.28,1.22-.95,2.5-2.57,2.5-.95,0-1.62-.61-1.62-1.42,0-1.96,3.71-4.19,8.85-4.19s8.31,1.82,8.31,6.21v11.34c1.76.07,3.24.2,3.24.2,1.15.14,1.01,1.82-.13,1.76ZM250.45,57.4c-.61.13-1.22.27-2.16.27-2.3,0-3.04-.47-4.93-.47-2.36,0-4.39,1.82-4.39,4.52,0,2.5,1.76,4.52,5.2,4.52,3.17,0,6.28-2.63,6.28-6.35v-2.5Z"/>
    <path class="cls-2" d="M288.06,65.64c1.76.07,3.24.2,3.24.2,1.15.14,1.01,1.82-.14,1.76,0,0-3.71-.27-6.15-.27s-6.14.27-6.14.27c-1.15.07-1.28-1.69-.14-1.76,0,0,1.49-.14,3.17-.2v-12.83c0-1.62-.68-2.43-2.3-2.43-4.12,0-7.97,4.66-7.97,10.13v5.13c1.69.07,3.17.2,3.17.2,1.15.14,1.01,1.82-.14,1.76,0,0-3.78-.27-6.01-.27s-6.01.27-6.01.27c-1.15.07-1.28-1.69-.14-1.76,0,0,1.55-.14,3.24-.2v-15.73c-1.76-.07-3.24-.2-3.24-.2-1.15-.14-1.01-1.82.14-1.76,0,0,3.71.27,6.01.27l2.97-.07v5c2.16-2.97,5.27-5.06,9.52-5.06,3.44,0,6.89,1.89,6.89,5.94v11.61Z"/>
    <path class="cls-2" d="M191.92,67.94c-1.82,0-5.13-.34-7.7-1.62-1.42,1.15-3.44,1.62-5.81,1.62-1.35,0-2.84-.34-3.78-.81-1.15-.54-.27-2.16.67-1.69.68.34,1.35.47,1.96.47,1.69,0,2.57-1.35,2.57-3.17v-29.78c-1.76-.07-3.24-.2-3.24-.2-1.15-.14-1.01-1.82.14-1.76,0,0,3.98.27,6.28.27,3.85,0,5.74-.41,9.86-.41,2.16,0,4.79.47,6.89,1.62,3.24,1.76,5.27,4.59,5.27,7.63,0,3.51-2.7,6.62-6.55,8.17,5.2,1.15,9.79,3.85,9.79,9.32s-5.61,10.33-16.34,10.33ZM189.76,49.23c-1.22,0-1.22-1.82,0-1.82,5.81,0,8.91-3.38,8.91-7.36,0-2.3-1.15-4.46-2.9-5.81-1.22-.95-2.9-1.55-5-1.55-1.01,0-3.24.2-4.52.34v28.5c0,1.35-.27,2.43-.74,3.31,2.03,1.01,4.79,1.28,6.55,1.28,6.01,0,9.32-3.51,9.32-8.58,0-6.82-5.94-8.31-11.61-8.31Z"/>
    <path class="cls-2" d="M319.73,67.5s-3.71-.27-6.14-.27l-3.11.07v-1.49c-1.69,1.42-3.78,2.16-6.21,2.16-7.23,0-12.97-4.39-12.97-9.99s5.74-9.99,12.97-9.99c2.43,0,4.46.74,6.21,2.16v-14.92c-1.76-.07-3.24-.2-3.24-.2-1.15-.14-1.01-1.82.13-1.76,0,0,3.71.27,6.15.27l3.11-.07v32.08c1.76.07,3.24.2,3.24.2,1.15.14,1.01,1.82-.14,1.76ZM303.92,49.81c-3.78,0-5.88,3.31-5.88,7.23,0,5.13,2.5,9.12,6.55,9.12s6.21-3.31,6.21-7.56c0-4.73-2.63-8.78-6.89-8.78Z"/>
    <path class="cls-2" d="M338.83,45.65c.88.81,1.69,1.49,1.69,2.77s-.74,1.89-1.69,2.77c-1.96,1.82-3.31,3.51-3.31,6.62,0,4.66,3.85,8.17,8.78,8.17,5.67,0,9.59-3.98,11.28-7.23.54-1.01,2.16-.2,1.62.81-1.96,3.78-6.15,8.37-13.84,8.37-6.75,0-15.33-2.16-15.33-10.13,0-6.68,6.96-8.1,9.05-8.31,1.08-.14,1.49-.47,1.49-1.08,0-.68-.41-.95-1.42-1.15-3.11-.68-7.63-2.36-7.63-7.29,0-6.62,7.43-9.25,13.51-9.25,6.96,0,8.85,3.71,8.85,6.55,0,3.44-2.5,6.01-5.2,6.01-1.82,0-3.04-1.28-3.04-2.84s1.22-2.57,2.5-2.84c1.42-.27,2.36-1.08,2.36-2.3s-1.28-2.7-4.52-2.7c-4.19,0-7.5,2.97-7.5,7.36,0,2.77,1.15,4.59,2.36,5.67Z"/>
    <path class="cls-2" d="M380.7,67.94c-3.04,0-6.08-.95-8.58-3.44l-4.25-4.25-5.2,5.2c2.23.07,4.66.27,4.66.27,1.15.14,1.01,1.82-.14,1.76,0,0-3.71-.27-6.14-.27s-6.15.27-6.15.27c-1.15.07-1.28-1.69-.14-1.76,0,0,3.65-.27,5.27-.34l6.48-6.48-8.98-9.12c-1.35-.07-2.77-.2-2.77-.2-1.15-.07-1.01-1.82.14-1.76,0,0,3.78.27,6.15.27s6.14-.27,6.14-.27c1.15-.07,1.28,1.62.14,1.76,0,0-1.35.14-2.23.2l5.2,5.34,5.27-5.27c-2.16-.07-4.66-.27-4.66-.27-1.15-.07-1.01-1.82.14-1.76,0,0,3.78.27,6.15.27s6.14-.27,6.14-.27c1.15-.07,1.28,1.62.14,1.76,0,0-3.51.27-5.27.34l-6.55,6.55,8.1,8.24c1.01,1.01,1.62,1.22,2.5,1.22.61,0,1.28-.14,1.96-.47.95-.47,1.82,1.15.67,1.69-.95.47-2.3.81-4.19.81Z"/>
    <path class="cls-2" d="M404.6,67.94c-5.2,0-7.16-4.52-6.15-9.18.27-1.15,2.03-.74,1.76.41-.74,3.44.68,6.55,2.9,6.55,2.7,0,4.59-4.32,4.59-8.17,0-4.93-2.97-7.77-6.01-7.77-2.77,0-4.73,1.69-5.6,4.93-.34,1.28-.47,3.17-.47,4.66v28.29c1.69.07,3.17.2,3.17.2,1.15.14,1.01,1.82-.14,1.76,0,0-3.78-.27-5.94-.27-2.03,0-5.87.27-5.87.27-1.15.07-1.28-1.69-.14-1.76,0,0,1.55-.14,3.24-.2v-37.88c-1.76-.07-3.24-.2-3.24-.2-1.15-.14-1.01-1.82.14-1.76,0,0,3.71.27,5.87.27l2.9-.07v2.09c1.69-1.35,4.05-2.16,7.5-2.16,6.42,0,11.41,3.71,11.41,9.79,0,5.67-4.79,10.2-9.93,10.2Z"/>
    <path class="cls-2" d="M429.53,47.95c5.94,0,10.6,3.78,10.6,7.7,0,2.43-1.55,3.58-4.12,3.58h-10.2c-1.22,0-1.22-1.82,0-1.82h4.32c1.96,0,3.11-1.01,3.11-2.97s-1.35-4.66-4.05-4.66c-3.71,0-5.81,3.31-5.81,7.23,0,5.13,2.43,9.12,7.29,9.12,3.11,0,6.69-1.82,8.51-4.46.68-1.01,2.16.07,1.49,1.08-2.09,3.04-5.74,5.2-11.28,5.2-6.96,0-12.76-4.39-12.76-9.99s5.67-9.99,12.9-9.99Z"/>
    <path class="cls-2" d="M460.86,59.76c-1.96,0-3.17-1.28-3.17-2.84s1.01-2.7,2.77-2.77c1.35-.07,2.57-.74,2.57-2.23,0-1.35-1.28-2.16-3.17-2.16-5.06,0-8.98,5.13-8.98,10.6v5.13c1.69.07,3.17.2,3.17.2,1.15.14,1.01,1.82-.14,1.76,0,0-3.78-.27-6.01-.27s-6.01.27-6.01.27c-1.15.07-1.28-1.69-.14-1.76,0,0,1.55-.14,3.24-.2v-15.73c-1.76-.07-3.24-.2-3.24-.2-1.15-.14-1.01-1.82.14-1.76,0,0,3.71.27,6.01.27l2.97-.07v4.93c2.16-2.9,5.27-5,9.25-5s6.42,2.16,6.42,5.54c0,3.85-3.31,6.28-5.67,6.28Z"/>
    <path class="cls-2" d="M486.1,59.16c0-1.22,1.81-1.23,1.82-.01.04,4.93-3.51,8.74-8.71,8.78-4.66.03-8.05-1.7-8.09-6.69l-.08-11.41c-1.69-.05-3.24-.18-3.24-.18-1.15-.06-1.03-1.82.12-1.76,0,0,3.78.24,6.15.22,2.43-.02,6.14-.32,6.14-.32,1.15-.08,1.29,1.61.15,1.75,0,0-1.48.15-3.17.23l.09,12.63c.02,2.23.84,3.51,3.06,3.49,3.04-.02,5.79-2.88,5.76-6.73ZM477.67,33.49c.01,2.03-1.59,3.66-3.62,3.67s-3.66-1.59-3.67-3.62c-.01-2.03,1.59-3.66,3.62-3.67,2.03-.01,3.66,1.59,3.67,3.62Z"/>
    <path class="cls-2" d="M502.85,47.95c5.94,0,10.6,3.78,10.6,7.7,0,2.43-1.55,3.58-4.12,3.58h-10.2c-1.22,0-1.22-1.82,0-1.82h4.32c1.96,0,3.11-1.01,3.11-2.97s-1.35-4.66-4.05-4.66c-3.71,0-5.81,3.31-5.81,7.23,0,5.13,2.43,9.12,7.29,9.12,3.11,0,6.69-1.82,8.51-4.46.68-1.01,2.16.07,1.49,1.08-2.09,3.04-5.74,5.2-11.28,5.2-6.96,0-12.76-4.39-12.76-9.99s5.67-9.99,12.9-9.99Z"/>
    <path class="cls-2" d="M541.8,65.5c1.76.07,3.24.2,3.24.2,1.15.14,1.01,1.82-.14,1.76,0,0-3.71-.27-6.15-.27s-6.14.27-6.14.27c-1.15.07-1.28-1.69-.14-1.76,0,0,1.49-.14,3.17-.2v-12.83c0-1.62-.68-2.43-2.3-2.43-4.12,0-7.97,4.66-7.97,10.13v5.13c1.69.07,3.17.2,3.17.2,1.15.14,1.01,1.82-.13,1.76,0,0-3.78-.27-6.01-.27s-6.01.27-6.01.27c-1.15.07-1.28-1.69-.14-1.76,0,0,1.55-.14,3.24-.2v-15.73c-1.76-.07-3.24-.2-3.24-.2-1.15-.14-1.01-1.82.14-1.76,0,0,3.71.27,6.01.27l2.97-.07v5c2.16-2.97,5.27-5.06,9.52-5.06,3.44,0,6.89,1.89,6.89,5.94v11.61Z"/>
    <path class="cls-2" d="M569.97,62.74c-2.09,3.04-5.74,5.2-11.28,5.2-6.96,0-12.76-4.39-12.76-9.99s5.74-9.99,12.97-9.99c4.52,0,7.09,2.3,7.09,5.54,0,2.7-1.55,5.4-4.32,5.4-1.49,0-2.7-1.22-2.7-2.7s.95-2.16,2.23-2.84c.74-.41,1.22-.88,1.22-1.62s-.81-1.96-3.51-1.96c-4.19,0-6.21,3.31-6.21,7.23,0,5.13,2.43,9.12,7.29,9.12,3.11,0,6.69-1.82,8.51-4.46.68-1.01,2.16.07,1.49,1.08Z"/>
    <path class="cls-2" d="M584.15,47.95c5.94,0,10.6,3.78,10.6,7.7,0,2.43-1.55,3.58-4.12,3.58h-10.2c-1.22,0-1.22-1.82,0-1.82h4.32c1.96,0,3.11-1.01,3.11-2.97s-1.35-4.66-4.05-4.66c-3.71,0-5.81,3.31-5.81,7.23,0,5.13,2.43,9.12,7.29,9.12,3.11,0,6.69-1.82,8.51-4.46.68-1.01,2.16.07,1.49,1.08-2.09,3.04-5.74,5.2-11.28,5.2-6.96,0-12.76-4.39-12.76-9.99s5.67-9.99,12.9-9.99Z"/>
  </g>
  <path class="cls-2" d="M694.64,67.68c-1.82-.02-4.32-.38-7.01-1.69-1.5,1.13-3.53,1.59-5.89,1.56-1.35-.01-2.83-.37-3.77-.85-1.14-.55-.25-2.16.69-1.68.67.34,1.35.49,1.95.49,1.69.02,2.58-1.33,2.6-3.15l.29-29.78c-1.76-.08-3.24-.23-3.24-.23-1.15-.15-1-1.83.15-1.75,0,0,3.98.31,6.41.33,3.92.04,6.01-.35,9.32-.32,4.25.04,8.43,1.43,11.84,4.23,4.42,3.62,7.01,8.64,6.95,14.38-.1,10.13-9.23,18.55-20.3,18.44ZM703.11,36.5c-2.41-2.59-5.3-4.04-8.74-4.07-1.28-.01-2.84.18-4.26.3l-.27,28.5c-.01,1.35-.29,2.43-.84,3.3,2.15,1.1,4.11,1.32,5.8,1.34,8.1.08,13.11-7.64,13.18-15.74.06-5.74-1.92-10.49-4.87-13.62Z"/>
  <path class="cls-2" d="M727.96,47.7c5.94.06,10.57,3.88,10.53,7.8-.02,2.43-1.59,3.56-4.15,3.54l-10.2-.1c-1.22-.01-1.2-1.84.02-1.82l4.32.04c1.96.02,3.12-.98,3.13-2.94.02-2.03-1.31-4.67-4.01-4.7-3.71-.04-5.84,3.25-5.88,7.17-.05,5.13,2.34,9.14,7.21,9.19,3.11.03,6.7-1.76,8.55-4.37.69-1.01,2.16.09,1.48,1.09-2.12,3.02-5.79,5.14-11.33,5.09-6.96-.07-12.72-4.51-12.67-10.12.05-5.6,5.77-9.94,12.99-9.87Z"/>
  <path class="cls-2" d="M740.23,62.45c.02-1.62,1.17-2.49,2.73-2.47,2.16.02,2.55,1.92,3.82,3.55.93,1.16,2.34,2.25,5.45,2.28s5.61-.89,5.63-2.78c.02-1.76-2.07-2.32-4.16-2.88l-5.19-1.33c-3.17-.84-7.14-1.89-7.11-5.54.04-4.19,4.78-5.69,10.59-5.64,3.17.03,5.67.73,7.34,1.76l.15-1.89c.08-1.15,1.83-1,1.75.15,0,0-.15,1.89-.16,2.9-.01,1.22.11,2.9.11,2.9.06,1.15-1.57,1.27-1.76.12-.19-1.15-1.51-4.07-7.39-4.12-3.04-.03-5.27.76-5.29,2.45-.01,1.55,1.74,1.97,3.49,2.46l5.66,1.47c3.17.84,7.14,1.89,7.11,5.54-.04,4.32-5.46,6.3-11.34,6.24-6.01-.06-11.46-1.73-11.43-5.18Z"/>
  <path class="cls-2" d="M782.16,59.23c.01-1.22,1.84-1.2,1.82.02-.05,4.93-3.66,8.68-8.86,8.63-4.66-.04-8.02-1.83-7.97-6.83l.11-11.41c-1.69-.08-3.24-.23-3.24-.23-1.15-.08-1-1.83.15-1.75,0,0,3.78.31,6.14.33s6.15-.21,6.15-.21c1.15-.06,1.27,1.63.12,1.76,0,0-1.49.12-3.18.17l-.12,12.63c-.02,2.23.78,3.52,3.01,3.54,3.04.03,5.83-2.78,5.87-6.63ZM774.17,33.42c-.02,2.03-1.66,3.63-3.68,3.61s-3.63-1.66-3.61-3.68,1.66-3.63,3.68-3.61,3.63,1.66,3.61,3.68Z"/>
  <path class="cls-2" d="M809.19,70.05v.88c-.11,10.74-7.14,18.77-16.94,18.68-7.23-.07-11.44-3.82-11.4-8.42.05-5.6,5.42-8.46,15.75-8.96,2.3-.11,5-.43,6.7-1.02l.05-5.47c-1.7,1.4-3.8,2.12-6.23,2.1-7.23-.07-12.92-4.51-12.87-10.12.05-5.6,5.84-9.94,13.06-9.87,2.43.02,4.45.79,6.19,2.22l.02-2.09,2.97.1c2.43.02,6.01-.21,6.01-.21,1.15-.06,1.27,1.63.12,1.76,0,0-1.49.12-3.24.17l-.17,17.83c1.98-1.8,3.41-4.02,4.18-6.71.35-1.21,2.1-.59,1.75.56-1.05,3.5-3.03,6.32-5.96,8.59ZM796.86,74.05c-5.14.36-9.21,2.68-9.25,7.2-.04,3.85,2.84,6.44,6.08,6.47,6.41.06,9.32-7.47,9.6-14.63-1.69.52-3.86.77-6.43.95ZM796.96,49.68c-3.78-.04-5.91,3.25-5.94,7.17-.05,5.13,2.41,9.14,6.46,9.18,3.98.04,6.24-3.25,6.29-7.5.05-4.73-2.55-8.8-6.8-8.84Z"/>
  <path class="cls-2" d="M841.57,65.86c1.75.08,3.24.23,3.24.23,1.15.15,1,1.83-.15,1.75,0,0-3.71-.31-6.14-.33-2.36-.02-6.15.21-6.15.21-1.15.06-1.27-1.7-.12-1.76,0,0,1.49-.12,3.18-.17l.12-12.83c.02-1.62-.65-2.44-2.27-2.45-4.12-.04-8.01,4.58-8.07,10.05l-.05,5.13c1.69.08,3.17.23,3.17.23,1.15.15,1,1.83-.15,1.75,0,0-3.78-.31-6.01-.33s-6.01.21-6.01.21c-1.15.06-1.27-1.7-.12-1.76,0,0,1.55-.12,3.24-.17l.15-15.73c-1.76-.08-3.24-.23-3.24-.23-1.15-.15-1-1.83.15-1.75,0,0,3.71.31,6.01.33l2.97-.04-.05,5c2.19-2.95,5.32-5.01,9.57-4.97,3.44.03,6.87,1.96,6.83,6.01l-.11,11.61Z"/>
  <path class="cls-2" d="M851.9,60.02c2.16,0,3.98,1.76,3.98,3.92s-1.82,3.92-3.98,3.92-3.92-1.76-3.92-3.92,1.76-3.92,3.92-3.92Z"/>
  <g>
    <g>
      <path class="cls-2" d="M643.72,59.11c.97-1.69,1.56-3.31,1.58-4.86.01-1.29-.49-1.7-.48-2.92.01-1.22.85-2.63,2.71-2.62,1.34.01,1.78,1.03,2.34,2.12.56,1.09,1.13,2.18,3.17,2.2,2.3.02,4.93-2.19,6.49-4.21.71-1.01,2.1.22,1.39,1.1-2.52,3.3-6.5,6.17-10.46,6.13-1.47-.01-2.68-.57-3.37-.98-.4,2.03-1.19,3.99-2.22,5.4l4.23,5.06,3.32.3c1.15.15,1,1.91-.15,1.83,0,0-3.63-.31-6-.33l-3.32.04-2.02-2.46c-2.64,2.01-5.45,3.06-9.92,3.02-7.72-.07-13.04-4.53-12.99-10.16.05-5.69,5.32-8.56,9.66-8.85l-2.33-2.8c-1.89-2.25-2.9-3.96-2.88-6.26.07-6.84,6.98-9.28,12.72-9.23,6.57.06,8.32,3.81,8.3,6.65-.03,3.46-2.48,6.01-4.97,5.98-1.66-.02-2.86-1.31-2.84-2.87.02-1.56,1.17-2.56,2.39-2.82,1.34-.26,2.24-1.06,2.26-2.28s-1.19-2.72-4.63-2.76c-4.72-.05-7.49,2.5-7.52,5.62-.02,2.24,1.56,4.08,2.63,5.38l12.93,15.58ZM628.93,50.5c-2.5,1.33-4.12,4.09-4.16,7.55-.04,4.27,3.63,7.9,7.96,7.94,2.3.02,4.73-.84,6.98-2.44l-10.79-13.05Z"/>
      <path class="cls-2" d="M660.09,45.27c-2.48,1.38-3.64,3.82-5.56,4.11-1.34.2-2.66-.42-2.84-1.71-.11-.83.26-1.61,1.13-1.74.52-.08,1.17.33,1.26.97.07.52-.17.75-.11,1.15.04.31.33.45.73.39.76-.11,1.35-1.18,1.24-2.04s-.86-1.57-1.57-2.44c-.56-.67-1.11-1.44-1.24-2.39-.19-1.42.58-2.73,2.01-2.95,1.08-.16,1.92.37,2.45,1.01.3-.45.36-1.5.19-2.39-.11.05-.23.07-.34.08-1.6.24-3.12-.53-4.01-1.85-.12.18-.28.36-.38.47-.49.55-1.19,1.09-2.52,1.29-2.35.36-3.93-1.01-4.49-2.37-.22-.5.45-.85.72-.39.35.61.96,1.18,2.18.99.87-.13,1.43-.63,1.9-1.07.55-.56,1.11-1.21,2.22-1.37,2.53-.38,4.59,1.29,5.28,3.17,1.14-.58,1.49-1.74,1.37-2.63-.11-.8-.6-1.14-1.17-1.24-.58-.1-1.12-.43-1.23-1.2-.1-.77.42-1.29,1.12-1.4,1.34-.2,2.45,1.08,2.64,2.5.27,2.01-.84,3.97-2.5,4.78.19.98.13,1.87,0,2.45.37-.37.86-.67,1.5-.76,1.34-.2,2.6.83,2.8,2.35.27,2-.88,3.19-2.76,4.22ZM654.74,34.28c-.35.05-.59.22-.82.53.69,1.19,2,1.9,3.4,1.69l.26-.04c-.5-1.34-1.79-2.34-2.84-2.18Z"/>
    </g>
    <g>
      <path class="cls-1" d="M643.72,59.11c.97-1.69,1.56-3.31,1.58-4.86.01-1.29-.49-1.7-.48-2.92.01-1.22.85-2.63,2.71-2.62,1.34.01,1.78,1.03,2.34,2.12.56,1.09,1.13,2.18,3.17,2.2,2.3.02,4.93-2.19,6.49-4.21.71-1.01,2.1.22,1.39,1.1-2.52,3.3-6.5,6.17-10.46,6.13-1.47-.01-2.68-.57-3.37-.98-.4,2.03-1.19,3.99-2.22,5.4l4.23,5.06,3.32.3c1.15.15,1,1.91-.15,1.83,0,0-3.63-.31-6-.33l-3.32.04-2.02-2.46c-2.64,2.01-5.45,3.06-9.92,3.02-7.72-.07-13.04-4.53-12.99-10.16.05-5.69,5.32-8.56,9.66-8.85l-2.33-2.8c-1.89-2.25-2.9-3.96-2.88-6.26.07-6.84,6.98-9.28,12.72-9.23,6.57.06,8.32,3.81,8.3,6.65-.03,3.46-2.48,6.01-4.97,5.98-1.66-.02-2.86-1.31-2.84-2.87.02-1.56,1.17-2.56,2.39-2.82,1.34-.26,2.24-1.06,2.26-2.28s-1.19-2.72-4.63-2.76c-4.72-.05-7.49,2.5-7.52,5.62-.02,2.24,1.56,4.08,2.63,5.38l12.93,15.58ZM628.93,50.5c-2.5,1.33-4.12,4.09-4.16,7.55-.04,4.27,3.63,7.9,7.96,7.94,2.3.02,4.73-.84,6.98-2.44l-10.79-13.05Z"/>
      <path class="cls-1" d="M660.09,45.27c-2.48,1.38-3.64,3.82-5.56,4.11-1.34.2-2.66-.42-2.84-1.71-.11-.83.26-1.61,1.13-1.74.52-.08,1.17.33,1.26.97.07.52-.17.75-.11,1.15.04.31.33.45.73.39.76-.11,1.35-1.18,1.24-2.04s-.86-1.57-1.57-2.44c-.56-.67-1.11-1.44-1.24-2.39-.19-1.42.58-2.73,2.01-2.95,1.08-.16,1.92.37,2.45,1.01.3-.45.36-1.5.19-2.39-.11.05-.23.07-.34.08-1.6.24-3.12-.53-4.01-1.85-.12.18-.28.36-.38.47-.49.55-1.19,1.09-2.52,1.29-2.35.36-3.93-1.01-4.49-2.37-.22-.5.45-.85.72-.39.35.61.96,1.18,2.18.99.87-.13,1.43-.63,1.9-1.07.55-.56,1.11-1.21,2.22-1.37,2.53-.38,4.59,1.29,5.28,3.17,1.14-.58,1.49-1.74,1.37-2.63-.11-.8-.6-1.14-1.17-1.24-.58-.1-1.12-.43-1.23-1.2-.1-.77.42-1.29,1.12-1.4,1.34-.2,2.45,1.08,2.64,2.5.27,2.01-.84,3.97-2.5,4.78.19.98.13,1.87,0,2.45.37-.37.86-.67,1.5-.76,1.34-.2,2.6.83,2.8,2.35.27,2-.88,3.19-2.76,4.22ZM654.74,34.28c-.35.05-.59.22-.82.53.69,1.19,2,1.9,3.4,1.69l.26-.04c-.5-1.34-1.79-2.34-2.84-2.18Z"/>
    </g>
  </g>
</svg>