<?xml version="1.0" encoding="UTF-8"?>
<svg id="Logo" xmlns="http://www.w3.org/2000/svg" viewBox="0 0 666.22 266.41">
  <defs>
    <style>
      .cls-1 {
        fill: #7f2322;
      }

      .cls-2 {
        fill: #181a1b;
      }
    </style>
  </defs>
  <g>
    <g>
      <g>
        <path class="cls-2" d="M262.99,133.18c-1.96,0-3.17-1.28-3.17-2.83s1.01-2.7,2.76-2.76c1.35-.07,2.56-.74,2.56-2.22,0-1.35-1.28-2.16-3.17-2.16-5.06,0-8.97,5.12-8.97,10.58v5.12c1.69.07,3.17.2,3.17.2,1.15.13,1.01,1.82-.13,1.75,0,0-3.77-.27-6-.27s-6,.27-6,.27c-1.15.07-1.28-1.69-.13-1.75,0,0,1.55-.13,3.24-.2v-15.71c-1.75-.07-3.24-.2-3.24-.2-1.15-.13-1.01-1.82.13-1.75,0,0,3.71.27,6,.27l2.97-.07v4.92c2.16-2.9,5.26-4.99,9.23-4.99s6.4,2.16,6.4,5.53c0,3.84-3.3,6.27-5.66,6.27Z"/>
        <path class="cls-2" d="M294.37,140.77s-3.71-.27-6.13-.27l-3.1.07v-2.09c-1.35,1.62-3.71,2.76-7.82,2.76-6,0-9.64-2.9-9.64-6.4s3.71-6.4,9.3-6.4c2.36,0,3.77.61,5.8.61,1.62,0,2.43-1.08,2.43-2.76,0-2.02-1.28-3.17-3.37-3.17-1.62,0-2.7.54-3.51,1.28-1.28,1.21-.94,2.49-2.56,2.49-.94,0-1.62-.61-1.62-1.42,0-1.95,3.71-4.18,8.83-4.18s8.29,1.82,8.29,6.2v11.32c1.75.07,3.24.2,3.24.2,1.15.13,1.01,1.82-.13,1.75ZM285.14,130.59c-.61.13-1.21.27-2.16.27-2.29,0-3.03-.47-4.92-.47-2.36,0-4.38,1.82-4.38,4.52,0,2.49,1.75,4.52,5.19,4.52,3.17,0,6.27-2.63,6.27-6.34v-2.49Z"/>
        <path class="cls-2" d="M322.68,138.81c1.75.07,3.24.2,3.24.2,1.15.13,1.01,1.82-.13,1.75,0,0-3.71-.27-6.13-.27s-6.13.27-6.13.27c-1.15.07-1.28-1.69-.13-1.75,0,0,1.48-.13,3.17-.2v-12.81c0-1.62-.67-2.43-2.29-2.43-4.11,0-7.95,4.65-7.95,10.11v5.12c1.69.07,3.17.2,3.17.2,1.15.13,1.01,1.82-.13,1.75,0,0-3.77-.27-6-.27s-6,.27-6,.27c-1.15.07-1.28-1.69-.13-1.75,0,0,1.55-.13,3.24-.2v-15.71c-1.75-.07-3.24-.2-3.24-.2-1.15-.13-1.01-1.82.13-1.75,0,0,3.71.27,6,.27l2.97-.07v4.99c2.16-2.97,5.26-5.06,9.5-5.06,3.44,0,6.88,1.89,6.88,5.93v11.59Z"/>
        <path class="cls-2" d="M226.71,141.1c-1.82,0-5.12-.34-7.68-1.62-1.42,1.15-3.44,1.62-5.8,1.62-1.35,0-2.83-.34-3.77-.81-1.15-.54-.27-2.16.67-1.69.67.34,1.35.47,1.96.47,1.69,0,2.56-1.35,2.56-3.17v-29.73c-1.75-.07-3.24-.2-3.24-.2-1.15-.13-1.01-1.82.13-1.75,0,0,3.98.27,6.27.27,3.84,0,5.73-.4,9.84-.4,2.16,0,4.79.47,6.88,1.62,3.24,1.75,5.26,4.58,5.26,7.62,0,3.51-2.7,6.61-6.54,8.16,5.19,1.15,9.77,3.84,9.77,9.3s-5.59,10.31-16.31,10.31ZM224.56,122.43c-1.21,0-1.21-1.82,0-1.82,5.8,0,8.9-3.37,8.9-7.35,0-2.29-1.15-4.45-2.9-5.8-1.21-.94-2.9-1.55-4.99-1.55-1.01,0-3.24.2-4.52.34v28.45c0,1.35-.27,2.43-.74,3.3,2.02,1.01,4.79,1.28,6.54,1.28,6,0,9.3-3.5,9.3-8.56,0-6.81-5.93-8.29-11.59-8.29Z"/>
        <path class="cls-2" d="M354.29,140.66s-3.71-.27-6.13-.27l-3.1.07v-1.48c-1.69,1.42-3.78,2.16-6.2,2.16-7.21,0-12.94-4.38-12.94-9.98s5.73-9.98,12.94-9.98c2.43,0,4.45.74,6.2,2.16v-14.9c-1.75-.07-3.24-.2-3.24-.2-1.15-.13-1.01-1.82.13-1.75,0,0,3.71.27,6.13.27l3.1-.07v32.02c1.75.07,3.24.2,3.24.2,1.15.13,1.01,1.82-.13,1.75ZM338.52,123c-3.77,0-5.86,3.3-5.86,7.21,0,5.12,2.49,9.1,6.54,9.1s6.2-3.3,6.2-7.55c0-4.72-2.63-8.76-6.88-8.76Z"/>
      </g>
      <g>
        <path class="cls-2" d="M380.34,118.86c.88.81,1.69,1.48,1.69,2.76s-.74,1.89-1.69,2.76c-1.96,1.82-3.3,3.5-3.3,6.61,0,4.65,3.84,8.16,8.76,8.16,5.66,0,9.57-3.98,11.26-7.21.54-1.01,2.16-.2,1.62.81-1.96,3.77-6.13,8.36-13.82,8.36-6.74,0-15.3-2.16-15.3-10.11,0-6.67,6.94-8.09,9.03-8.29,1.08-.13,1.48-.47,1.48-1.08,0-.67-.4-.94-1.42-1.15-3.1-.67-7.62-2.36-7.62-7.28,0-6.61,7.41-9.23,13.48-9.23,6.94,0,8.83,3.71,8.83,6.54,0,3.44-2.49,6-5.19,6-1.82,0-3.03-1.28-3.03-2.83s1.21-2.56,2.49-2.83c1.42-.27,2.36-1.08,2.36-2.29s-1.28-2.7-4.52-2.7c-4.18,0-7.48,2.97-7.48,7.35,0,2.76,1.15,4.58,2.36,5.66Z"/>
        <path class="cls-2" d="M422.14,141.1c-3.03,0-6.07-.94-8.56-3.44l-4.25-4.25-5.19,5.19c2.22.07,4.65.27,4.65.27,1.15.13,1.01,1.82-.13,1.75,0,0-3.71-.27-6.13-.27s-6.13.27-6.13.27c-1.15.07-1.28-1.69-.13-1.75,0,0,3.64-.27,5.26-.34l6.47-6.47-8.96-9.1c-1.35-.07-2.76-.2-2.76-.2-1.15-.07-1.01-1.82.13-1.75,0,0,3.77.27,6.13.27s6.13-.27,6.13-.27c1.15-.07,1.28,1.62.13,1.75,0,0-1.35.13-2.22.2l5.19,5.33,5.26-5.26c-2.16-.07-4.65-.27-4.65-.27-1.15-.07-1.01-1.82.13-1.75,0,0,3.77.27,6.13.27s6.13-.27,6.13-.27c1.15-.07,1.28,1.62.13,1.75,0,0-3.5.27-5.26.34l-6.54,6.54,8.09,8.22c1.01,1.01,1.62,1.21,2.49,1.21.61,0,1.28-.13,1.96-.47.94-.47,1.82,1.15.67,1.69-.94.47-2.29.81-4.18.81Z"/>
        <path class="cls-2" d="M446,141.1c-5.19,0-7.15-4.52-6.13-9.17.27-1.15,2.02-.74,1.75.4-.74,3.44.67,6.54,2.9,6.54,2.7,0,4.58-4.31,4.58-8.16,0-4.92-2.97-7.75-6-7.75-2.76,0-4.72,1.69-5.59,4.92-.34,1.28-.47,3.17-.47,4.65v28.37c1.69.07,3.17.2,3.17.2,1.15.13,1.01,1.82-.13,1.75,0,0-3.77-.27-5.93-.27-2.02,0-5.86.27-5.86.27-1.15.07-1.28-1.69-.13-1.75,0,0,1.55-.13,3.24-.2v-37.95c-1.75-.07-3.24-.2-3.24-.2-1.15-.13-1.01-1.82.13-1.75,0,0,3.71.27,5.86.27l2.9-.07v2.09c1.69-1.35,4.04-2.16,7.48-2.16,6.4,0,11.39,3.71,11.39,9.77,0,5.66-4.79,10.18-9.91,10.18Z"/>
        <path class="cls-2" d="M470.88,121.15c5.93,0,10.58,3.77,10.58,7.68,0,2.43-1.55,3.57-4.11,3.57h-10.18c-1.21,0-1.21-1.82,0-1.82h4.31c1.95,0,3.1-1.01,3.1-2.97s-1.35-4.65-4.04-4.65c-3.71,0-5.8,3.3-5.8,7.21,0,5.12,2.43,9.1,7.28,9.1,3.1,0,6.67-1.82,8.49-4.45.67-1.01,2.16.07,1.48,1.08-2.09,3.03-5.73,5.19-11.26,5.19-6.94,0-12.74-4.38-12.74-9.98s5.66-9.98,12.87-9.98Z"/>
        <path class="cls-2" d="M502.15,132.95c-1.96,0-3.17-1.28-3.17-2.83s1.01-2.7,2.76-2.76c1.35-.07,2.56-.74,2.56-2.22,0-1.35-1.28-2.16-3.17-2.16-5.06,0-8.97,5.12-8.97,10.58v5.12c1.69.07,3.17.2,3.17.2,1.15.13,1.01,1.82-.13,1.75,0,0-3.77-.27-6-.27s-6,.27-6,.27c-1.15.07-1.28-1.69-.13-1.75,0,0,1.55-.13,3.24-.2v-15.71c-1.75-.07-3.24-.2-3.24-.2-1.15-.13-1.01-1.82.13-1.75,0,0,3.71.27,6,.27l2.97-.07v4.92c2.16-2.9,5.26-4.99,9.23-4.99s6.4,2.16,6.4,5.53c0,3.84-3.3,6.27-5.66,6.27Z"/>
        <path class="cls-2" d="M527.35,132.34c0-1.21,1.81-1.23,1.82-.01.04,4.92-3.51,8.72-8.7,8.76-4.65.03-8.03-1.69-8.07-6.68l-.08-11.39c-1.69-.05-3.24-.18-3.24-.18-1.15-.06-1.02-1.81.12-1.75,0,0,3.78.24,6.14.22,2.43-.02,6.13-.31,6.13-.31,1.15-.08,1.29,1.61.15,1.75,0,0-1.48.15-3.17.23l.09,12.6c.02,2.22.83,3.5,3.06,3.48,3.03-.02,5.78-2.87,5.75-6.72ZM518.94,106.72c.01,2.02-1.59,3.65-3.61,3.67-2.02.01-3.65-1.59-3.67-3.61s1.59-3.65,3.61-3.67c2.02-.01,3.65,1.59,3.67,3.61Z"/>
        <path class="cls-2" d="M544.07,121.15c5.93,0,10.58,3.77,10.58,7.68,0,2.43-1.55,3.57-4.11,3.57h-10.18c-1.21,0-1.21-1.82,0-1.82h4.31c1.95,0,3.1-1.01,3.1-2.97s-1.35-4.65-4.04-4.65c-3.71,0-5.8,3.3-5.8,7.21,0,5.12,2.43,9.1,7.28,9.1,3.1,0,6.67-1.82,8.49-4.45.67-1.01,2.16.07,1.48,1.08-2.09,3.03-5.73,5.19-11.26,5.19-6.94,0-12.74-4.38-12.74-9.98s5.66-9.98,12.87-9.98Z"/>
        <path class="cls-2" d="M582.95,138.67c1.75.07,3.24.2,3.24.2,1.15.13,1.01,1.82-.13,1.75,0,0-3.71-.27-6.13-.27s-6.13.27-6.13.27c-1.15.07-1.28-1.69-.13-1.75,0,0,1.48-.13,3.17-.2v-12.81c0-1.62-.67-2.43-2.29-2.43-4.11,0-7.95,4.65-7.95,10.11v5.12c1.69.07,3.17.2,3.17.2,1.15.13,1.01,1.82-.13,1.75,0,0-3.78-.27-6-.27s-6,.27-6,.27c-1.15.07-1.28-1.69-.13-1.75,0,0,1.55-.13,3.24-.2v-15.71c-1.75-.07-3.24-.2-3.24-.2-1.15-.13-1.01-1.82.13-1.75,0,0,3.71.27,6,.27l2.97-.07v4.99c2.16-2.97,5.26-5.06,9.5-5.06,3.44,0,6.88,1.89,6.88,5.93v11.59Z"/>
        <path class="cls-2" d="M611.07,135.91c-2.09,3.03-5.73,5.19-11.26,5.19-6.94,0-12.74-4.38-12.74-9.98s5.73-9.98,12.94-9.98c4.52,0,7.08,2.29,7.08,5.53,0,2.7-1.55,5.39-4.31,5.39-1.48,0-2.7-1.21-2.7-2.7s.94-2.16,2.22-2.83c.74-.4,1.21-.88,1.21-1.62s-.81-1.96-3.5-1.96c-4.18,0-6.2,3.3-6.2,7.21,0,5.12,2.43,9.1,7.28,9.1,3.1,0,6.67-1.82,8.49-4.45.67-1.01,2.16.07,1.48,1.08Z"/>
        <path class="cls-2" d="M625.22,121.15c5.93,0,10.58,3.77,10.58,7.68,0,2.43-1.55,3.57-4.11,3.57h-10.18c-1.21,0-1.21-1.82,0-1.82h4.31c1.95,0,3.1-1.01,3.1-2.97s-1.35-4.65-4.04-4.65c-3.71,0-5.8,3.3-5.8,7.21,0,5.12,2.43,9.1,7.28,9.1,3.1,0,6.67-1.82,8.49-4.45.67-1.01,2.16.07,1.48,1.08-2.09,3.03-5.73,5.19-11.26,5.19-6.94,0-12.74-4.38-12.74-9.98s5.66-9.98,12.87-9.98Z"/>
      </g>
      <g>
        <path class="cls-2" d="M218.58,77.01s1.47-.13,3.06-.19v-12.56l-12.62-18.17c-1.02-.06-2.49-.19-2.49-.19-1.08-.06-.96-1.72.13-1.66,0,0,3.82.26,5.99.26s5.99-.26,5.99-.26c1.08-.06,1.21,1.53.13,1.66,0,0-1.53.13-2.68.19l11.09,16c.38-.89.96-1.98,1.72-3.25,5.8-9.31,10.77-14.85,15.11-14.85,1.79,0,2.74,1.27,2.74,2.61,0,1.72-1.08,2.55-2.8,2.68-6.25.45-9.69,4.02-13.51,10.45-.83,1.4-2.68,4.4-2.68,9.56v7.52c1.66.06,3.06.19,3.06.19,1.08.13.96,1.72-.13,1.66,0,0-3.76-.26-5.99-.26s-5.99.26-5.99.26c-1.08.06-1.21-1.59-.13-1.66Z"/>
        <path class="cls-2" d="M245.32,79.1c-6.81,0-12.22-4.14-12.22-9.42s5.41-9.42,12.22-9.42,12.15,4.14,12.15,9.42-5.35,9.42-12.15,9.42ZM245.01,61.98c-3.56,0-5.54,3.12-5.54,6.81,0,4.84,2.35,8.59,6.17,8.59s5.54-3.12,5.54-7.13c0-4.45-2.35-8.27-6.17-8.27Z"/>
        <path class="cls-2" d="M259.12,74.32c0-1.53,1.08-2.35,2.55-2.35,2.04,0,2.42,1.78,3.63,3.31.89,1.08,2.23,2.1,5.15,2.1s5.28-.89,5.28-2.67c0-1.65-1.97-2.16-3.95-2.67l-4.9-1.21c-2.99-.76-6.75-1.72-6.75-5.15,0-3.95,4.45-5.41,9.93-5.41,2.99,0,5.35.64,6.94,1.59l.13-1.78c.06-1.08,1.72-.95,1.65.13,0,0-.13,1.78-.13,2.74,0,1.15.13,2.74.13,2.74.06,1.08-1.46,1.21-1.65.13-.19-1.08-1.46-3.82-7-3.82-2.86,0-4.96.76-4.96,2.35,0,1.46,1.65,1.85,3.31,2.29l5.35,1.34c2.99.76,6.75,1.72,6.75,5.15,0,4.07-5.09,5.98-10.63,5.98s-10.82-1.53-10.82-4.77Z"/>
        <path class="cls-2" d="M306.27,74.2c0,1.72.83,2.99,2.67,2.99.57,0,1.21-.13,1.85-.45.89-.45,1.72,1.08.64,1.59-.89.45-2.29.76-3.56.76-4.2,0-7.38-1.72-7.38-6.05v-8.34c0-1.53-.64-2.29-2.16-2.29-3.88,0-7.51,4.39-7.51,9.55v4.84c1.59.06,2.99.19,2.99.19,1.08.13.95,1.72-.13,1.65,0,0-3.56-.25-5.66-.25s-5.66.25-5.66.25c-1.08.06-1.21-1.59-.13-1.65,0,0,1.46-.13,3.05-.19v-28.57c-1.65-.06-3.05-.19-3.05-.19-1.08-.13-.95-1.72.13-1.65,0,0,3.5.25,5.66.25l2.8-.06v18.45c2.04-2.8,4.9-4.77,8.97-4.77,3.25,0,6.49,1.78,6.49,5.6v8.34Z"/>
        <path class="cls-2" d="M327.86,70.89c0-1.15,1.72-1.15,1.72,0,0,4.65-3.37,8.21-8.27,8.21-4.39,0-7.57-1.65-7.57-6.36v-10.75c-1.59-.06-3.05-.19-3.05-.19-1.08-.06-.95-1.72.13-1.65,0,0,3.56.25,5.79.25s5.79-.25,5.79-.25c1.08-.06,1.21,1.53.13,1.65,0,0-1.4.13-2.99.19v11.9c0,2.1.76,3.31,2.86,3.31,2.86,0,5.47-2.67,5.47-6.3ZM320.1,46.64c0,1.91-1.53,3.44-3.44,3.44s-3.44-1.53-3.44-3.44,1.53-3.44,3.44-3.44,3.44,1.53,3.44,3.44Z"/>
      </g>
      <g>
        <g>
          <path class="cls-2" d="M281.35,205.41c-1.73-.02-4.09-.36-6.64-1.6-1.42,1.08-3.34,1.5-5.59,1.48-1.28-.01-2.69-.35-3.58-.8-1.08-.52-.24-2.05.66-1.59.64.33,1.28.46,1.85.47,1.6.02,2.45-1.26,2.46-2.99l.27-28.24c-1.66-.08-3.07-.22-3.07-.22-1.09-.14-.94-1.74.14-1.66,0,0,3.78.29,6.08.31,3.71.04,5.7-.33,8.84-.3,4.03.04,7.99,1.36,11.23,4.01,4.19,3.43,6.64,8.2,6.59,13.64-.09,9.61-8.75,17.59-19.25,17.49ZM289.38,175.84c-2.28-2.46-5.02-3.83-8.29-3.86-1.22-.01-2.69.17-4.04.28l-.26,27.02c-.01,1.28-.28,2.3-.8,3.13,2.04,1.04,3.89,1.25,5.5,1.27,7.68.07,12.43-7.24,12.5-14.93.05-5.44-1.83-9.94-4.61-12.92Z"/>
          <path class="cls-2" d="M312.94,186.46c5.63.05,10.02,3.68,9.98,7.4-.02,2.31-1.51,3.38-3.94,3.36l-9.67-.09c-1.15-.01-1.14-1.74.02-1.73l4.1.04c1.86.02,2.95-.93,2.97-2.79.02-1.92-1.24-4.43-3.8-4.46-3.52-.03-5.54,3.08-5.57,6.8-.05,4.87,2.22,8.67,6.83,8.71,2.95.03,6.36-1.67,8.11-4.15.65-.95,2.05.08,1.4,1.04-2.01,2.86-5.49,4.88-10.74,4.83-6.6-.06-12.06-4.28-12.01-9.59.05-5.31,5.47-9.42,12.32-9.36Z"/>
          <path class="cls-2" d="M324.58,200.45c.01-1.54,1.11-2.36,2.58-2.34,2.05.02,2.42,1.82,3.62,3.36.89,1.1,2.22,2.13,5.17,2.16,2.82.03,5.32-.85,5.34-2.64.02-1.66-1.96-2.2-3.94-2.73l-4.92-1.26c-3-.8-6.77-1.79-6.74-5.25.04-3.97,4.53-5.4,10.04-5.35,3.01.03,5.37.69,6.96,1.67l.15-1.79c.07-1.09,1.74-.94,1.66.14,0,0-.15,1.79-.15,2.75-.01,1.15.1,2.75.1,2.75.05,1.09-1.48,1.2-1.67.11-.18-1.09-1.44-3.86-7.01-3.91-2.88-.03-5,.72-5.02,2.32-.01,1.47,1.65,1.87,3.31,2.34l5.37,1.4c3,.8,6.77,1.79,6.74,5.25-.04,4.1-5.18,5.97-10.75,5.92s-10.87-1.64-10.84-4.91Z"/>
          <path class="cls-2" d="M364.33,197.4c.01-1.15,1.74-1.14,1.73.02-.05,4.67-3.47,8.23-8.4,8.18-4.42-.04-7.6-1.74-7.56-6.48l.1-10.82c-1.6-.08-3.07-.22-3.07-.22-1.09-.07-.94-1.74.14-1.66,0,0,3.58.29,5.82.31,2.3.02,5.83-.2,5.83-.2,1.09-.05,1.2,1.55.11,1.67,0,0-1.41.11-3.01.16l-.12,11.97c-.02,2.11.74,3.34,2.85,3.36,2.88.03,5.53-2.64,5.57-6.29ZM356.76,172.92c-.02,1.92-1.57,3.44-3.49,3.42s-3.44-1.57-3.42-3.49,1.57-3.44,3.49-3.42c1.92.02,3.44,1.57,3.42,3.49Z"/>
          <path class="cls-2" d="M389.96,207.66v.83c-.11,10.18-6.78,17.8-16.06,17.71-6.85-.07-10.85-3.63-10.81-7.98.05-5.31,5.14-8.02,14.94-8.5,2.18-.11,4.74-.4,6.35-.96l.05-5.19c-1.61,1.33-3.61,2.01-5.91,1.99-6.85-.07-12.25-4.28-12.2-9.6.05-5.31,5.53-9.42,12.39-9.36,2.3.02,4.22.74,5.87,2.11l.02-1.98,2.82.09c2.31.02,5.7-.2,5.7-.2,1.09-.05,1.2,1.55.11,1.67,0,0-1.41.11-3.08.16l-.16,16.9c1.87-1.71,3.24-3.81,3.97-6.37.33-1.15,1.99-.56,1.66.53-.99,3.32-2.88,5.99-5.65,8.14ZM378.27,211.45c-4.87.34-8.73,2.54-8.77,6.83-.04,3.65,2.69,6.11,5.77,6.14,6.08.06,8.84-7.09,9.1-13.87-1.61.5-3.66.73-6.09.9ZM378.37,188.34c-3.59-.03-5.6,3.08-5.64,6.8-.05,4.87,2.29,8.67,6.13,8.7,3.78.04,5.92-3.08,5.96-7.11.04-4.48-2.42-8.35-6.45-8.39Z"/>
          <path class="cls-2" d="M420.68,203.68c1.66.08,3.07.22,3.07.22,1.09.14.94,1.74-.14,1.66,0,0-3.52-.29-5.82-.31s-5.83.2-5.83.2c-1.09.05-1.2-1.61-.11-1.67,0,0,1.41-.11,3.01-.16l.12-12.17c.01-1.54-.62-2.31-2.15-2.33-3.91-.04-7.6,4.35-7.65,9.53l-.05,4.87c1.6.08,3.01.22,3.01.22,1.09.14.94,1.74-.14,1.66,0,0-3.58-.29-5.7-.31-2.05-.02-5.7.2-5.7.2-1.09.05-1.2-1.61-.11-1.67,0,0,1.47-.11,3.08-.16l.14-14.92c-1.66-.08-3.07-.22-3.07-.22-1.09-.14-.94-1.74.14-1.66,0,0,3.52.29,5.7.31l2.82-.04-.05,4.74c2.08-2.8,5.04-4.75,9.07-4.72,3.27.03,6.51,1.86,6.48,5.7l-.11,11.01Z"/>
          <path class="cls-2" d="M430.47,198.14c2.05,0,3.78,1.67,3.78,3.71s-1.73,3.71-3.78,3.71-3.71-1.67-3.71-3.71,1.66-3.71,3.71-3.71Z"/>
        </g>
        <g>
          <path class="cls-2" d="M236.51,196c.94-1.62,1.5-3.18,1.52-4.67.01-1.24-.47-1.63-.46-2.8.01-1.17.82-2.53,2.6-2.51,1.29.01,1.71.99,2.25,2.04.54,1.05,1.08,2.09,3.05,2.11,2.21.02,4.74-2.1,6.23-4.04.68-.97,2.02.21,1.34,1.05-2.42,3.17-6.25,5.93-10.05,5.89-1.41-.01-2.57-.55-3.24-.94-.39,1.95-1.14,3.83-2.13,5.19l4.06,4.86,3.19.29c1.1.14.96,1.83-.14,1.76,0,0-3.49-.29-5.76-.32l-3.19.03-1.94-2.36c-2.53,1.93-5.24,2.94-9.53,2.9-7.42-.07-12.53-4.35-12.48-9.76.05-5.47,5.11-8.22,9.28-8.51l-2.24-2.69c-1.82-2.17-2.78-3.8-2.76-6.02.06-6.58,6.71-8.92,12.23-8.87,6.31.06,8,3.66,7.97,6.39-.03,3.32-2.39,5.77-4.78,5.75-1.59-.02-2.75-1.26-2.73-2.76.01-1.5,1.13-2.46,2.29-2.71,1.29-.25,2.16-1.02,2.17-2.19s-1.14-2.62-4.45-2.65c-4.54-.04-7.2,2.4-7.23,5.4-.02,2.15,1.5,3.92,2.53,5.17l12.42,14.97ZM222.31,187.72c-2.4,1.28-3.96,3.93-3.99,7.25-.04,4.1,3.48,7.59,7.65,7.63,2.21.02,4.55-.8,6.71-2.34l-10.36-12.54Z"/>
          <path class="cls-2" d="M252.24,182.7c-2.39,1.33-3.5,3.67-5.34,3.95-1.28.19-2.56-.4-2.72-1.64-.11-.8.25-1.55,1.09-1.68.5-.08,1.12.31,1.21.94.07.5-.16.72-.11,1.1.04.3.31.44.71.38.73-.11,1.3-1.13,1.19-1.96-.11-.83-.83-1.51-1.51-2.34-.54-.64-1.07-1.38-1.19-2.3-.18-1.36.56-2.62,1.93-2.83,1.03-.16,1.84.36,2.35.97.28-.44.35-1.44.18-2.29-.11.05-.22.06-.33.08-1.54.23-3-.51-3.85-1.78-.12.17-.27.34-.37.45-.47.52-1.14,1.05-2.43,1.24-2.26.34-3.77-.97-4.32-2.28-.21-.48.43-.82.69-.38.33.58.92,1.13,2.09.95.84-.13,1.37-.6,1.83-1.03.53-.53,1.07-1.16,2.13-1.32,2.43-.37,4.41,1.24,5.07,3.04,1.09-.56,1.43-1.67,1.32-2.53-.1-.77-.57-1.09-1.13-1.19-.55-.1-1.08-.41-1.18-1.15s.4-1.24,1.07-1.34c1.28-.19,2.36,1.03,2.54,2.4.26,1.93-.8,3.81-2.41,4.6.18.94.12,1.79,0,2.36.35-.36.83-.64,1.44-.73,1.28-.19,2.5.8,2.69,2.25.26,1.93-.85,3.06-2.65,4.06ZM247.1,172.14c-.33.05-.57.21-.79.51.66,1.14,1.92,1.83,3.26,1.62l.25-.04c-.48-1.29-1.72-2.25-2.73-2.1Z"/>
        </g>
      </g>
    </g>
    <rect class="cls-2" x="172.08" y="29.71" width="4" height="207"/>
  </g>
  <path class="cls-1" d="M84.81,158.27l-.31-.08c-2.57,3.35-6.13,8.73-8.63,12.03-2.75,3.62-5.83,8.31-6.65,9.67s.89,4-6.27,6.48c-2.16.75-5.45-.21-6.67-1.36-3.04-2.87-5.94-6.73-3.62-9.39,3.49-4.01,1.98-4.37-1.71-4.37-1.62,0-3.58.58-5.06,1.44-2.88,1.72-5.11,4.43-6.48,7.49-1.83,3.87,1.48,7.47,4.75,9.09,1.07.52,2.3,1.31,3.47,1.56,23.02,4.59,41.93-7.59,37.19-32.57ZM117.25,174.96c-2.96-.88-5.96-1.41-8.73-2.69-2.2-1.01-5.24-4.27-6.13-7.49-2.24-8.08,5.75-14.85,9.14-21.94.05-.1-.06-.19-.15-.14-1.71.53-3.3.77-4.95,1.37-3.62,1.25-7.46,2.31-10.58,4.63-1.08.88-2.41,1.92-3.28,3.57,1.3,2.28,3.18,5.75,3.23,8.38,2.4,8.36-2.83,16.83-8.11,22.9-6.84,6.24-15.51,9.84-24.55,11.48-7.2.9-15.17,2.53-21.95-.87-6.02-3.41-8.97-12.02-4.2-17.61,4.91-6.95,14.41-13.44,21.39-11.61,4.2,1.1,3.66,3.58,6.24,3.58,3.1,0,12.86-9.79,17.85-13.94-9.9-6.5-23.2.5-32.28,5.91-2.32,1.31-5.17,2-7.45,3.83-1.16.93-1.8,2.56-2.82,3.58-2.96,2.14-5.87,2.31-9.51-4.33-3.36-6.15,6.02-9.03,12.56-10.2,6.24-2.23,15.38-10.03,20.95-14.62-.29-.07-.21-.07-.58-.13-2.19.69-8.39,4.28-9.73,2.68-2.21-2.64-6.83-7.63-4.81-11.5,1.7-2.5,5.01-3.55,7.61-4.9,4.04-2.05,10.53-7.59,14.17-10.29.7-.52.34-.58-.38-.74-8.75,2.5-11.12,3.85-15.12-4.74-1.64-3.53,4.56-5.97,6.99-6.95,2.16-.87,4.16-2.4,6.15-3.63,3.99-2.49,8.25-4.75,12.02-7.55,3.7-2.75,8.34-6.38,10.29-10.68-3.97-1.32-10.34,1.01-13.98,2.66-4.15,1.87-9.78,5.72-12.43,9.41-2.75,3.84-1.5,8.41-6.36,9.05-5.48.79-10.26-3.18-12.81-7.69-3.73-5.55-7.83-9.5-3.3-16.35,1.67-2.06,4.32-3.08,6.4-1.26,3.27,2,5.49,4.82,7.43,8.16,2.54,4.39,30.79-9.27,35.2-12.08,5.23-3.09,9.22-2.27,14.25.57,4.48,2.3,17.5,11.1,6.49,13.47-4.75,3.2-9.24,6.6-14.2,9.4-2.05,1.05-4.62,2.43-6.41,3.84,0,0,0,.3,0,.3,2.85,2.74,7.58,3.75,9.76,7.11-1.32,3.64-5.61,4.59-9.23,4.94-3.58.67-7.39,2.77-10.31,4.63-4.52,3.04-8.68,5.53-13.17,8.59.18.91,4.21-1.01,4.87-1.41,4.27-2.9,12.21.27,15.95,3.19,5.11,3.61,3.51,5.46-1.52,7.54-5.02,2.7-11.14,5.78-14.29,10.32,5.86-.14,11.37.77,16.26,4.27.45.31.76.37,1.23-.02,6.98-6.12,15.61-9.45,23.37-14.32,5.4-3.46,12.46-1.47,17.14,2.35,4.93,3.86.06,8.28-3.13,11.48-3.31,3.31-6.24,6.61-8.81,10.64-.68,1.37-2.08,3.46.34,3.98,5.31,1.14,10.44,3.05,15.24,5.56,6.15,3.13,11.43,7.33,4.77,13.59-7.54,4.16-16.8,3.89-25.19,4.32-9.91.51-20.3,3.88-30.25,6.7-.41.13-.49-.24-.16-.35,10.51-3.95,27.11-8.92,33.58-17.9Z"/>
</svg>