<?xml version="1.0" encoding="UTF-8"?>
<svg id="Logo" xmlns="http://www.w3.org/2000/svg" viewBox="0 0 432 361.29">
  <defs>
    <style>
      .cls-1 {
        fill: #263355;
      }

      .cls-2 {
        fill: #000414;
      }

      .cls-3 {
        fill: #7f2322;
      }

      .cls-4 {
        fill: #181a1b;
      }
    </style>
  </defs>
  <g>
    <g>
      <path class="cls-3" d="M233.8,140.06c-1.67-.56-1.55-.52-3.22-1.08-.7,1-1.38,1.97-1.96,2.73-1.48,1.95-3.13,4.46-3.57,5.19-.44.73.48,2.15-3.37,3.48-1.16.4-2.93-.11-3.58-.73-1.63-1.54-3.19-3.61-1.95-5.04,1.88-2.15,1.06-2.35-.92-2.35-.87,0-1.92.31-2.72.78-1.55.92-2.75,2.38-3.48,4.02-.98,2.08.8,4.01,2.55,4.88.57.28,1.23.71,1.86.84,10.8,2.15,19.91-2.56,20.36-12.73ZM248.54,146.58c1.02-.85.64-2.51-.63-2.88-.66-.19-1.3-.41-1.93-.69-1.16-.54-2.77-2.26-3.24-3.96-1.19-4.27,3.04-7.85,4.84-11.6.02-.05-.03-.1-.08-.08-.91.28-1.74.41-2.62.72-1.92.66-3.95,1.22-5.59,2.45-.31.25-.66.53-.98.86-.49.51-.59,1.29-.25,1.92.59,1.11,1.19,2.45,1.21,3.53,1.26,4.38-1.44,8.81-4.2,12.01-.06.07-.12.13-.19.19-3.59,3.23-8.11,5.11-12.83,5.97-.04,0-.07.01-.11.02-3.79.48-7.98,1.32-11.55-.47-3.19-1.81-4.74-6.35-2.22-9.31,2.59-3.67,7.62-7.11,11.31-6.14,2.22.58,1.94,1.9,3.3,1.9,1.29,0,4.76-3.2,7.46-5.64,1.01-.91.58-2.59-.74-2.89-4.78-1.09-10.34,1.89-14.36,4.28-1.22.69-2.73,1.06-3.94,2.02-.56.45-.89,1.2-1.35,1.74-.09.11-.2.2-.32.28-1.5,1.01-3,.96-4.85-2.41-1.75-3.21,3.04-4.73,6.49-5.37.1-.02.2-.04.3-.08,3.3-1.24,8.03-5.29,10.93-7.68-.16-.03-.11-.03-.3-.07-1.16.36-4.44,2.27-5.15,1.42-1.17-1.4-3.61-4.03-2.54-6.08.9-1.32,2.65-1.88,4.02-2.59,2.14-1.09,5.57-4.01,7.49-5.44.37-.27.18-.3-.2-.39-4.62,1.32-5.88,2.04-7.99-2.5-.87-1.86,2.41-3.16,3.7-3.68,1.14-.46,2.2-1.27,3.25-1.92,2.11-1.31,4.36-2.51,6.36-3.99,1.04-.78,2.23-1.68,3.26-2.71,1.2-1.18.08-3.23-1.55-2.83-1.36.33-2.69.86-3.66,1.3-2.19.99-5.17,3.03-6.57,4.98-1.46,2.03-.79,4.44-3.36,4.78-2.9.42-5.43-1.68-6.77-4.06-1.97-2.94-4.14-5.02-1.74-8.65.89-1.09,2.28-1.63,3.39-.67,1.73,1.06,2.9,2.55,3.93,4.32,1.34,2.32,16.28-4.9,18.61-6.39,2.76-1.63,4.88-1.2,7.54.3,2.33,1.19,9.01,5.7,3.73,7.05-.19.05-.39.13-.55.24-2.42,1.64-4.72,3.37-7.26,4.8-1.09.56-2.44,1.29-3.39,2.03,0,0,0,.16,0,.16,1.11,1.07,2.76,1.64,4.01,2.57.89.67.89,2.04-.02,2.68-1.02.72-2.45.99-3.72,1.11-1.89.35-3.91,1.47-5.45,2.45-2.39,1.61-4.59,2.93-6.96,4.54.1.48,2.22-.54,2.58-.75,2.26-1.54,6.46.14,8.44,1.69,2.68,1.89,1.87,2.87-.73,3.96-.04.02-.09.04-.13.06-1.44.78-3.06,1.61-4.49,2.6-1.23.85-.85,2.8.62,3.05,1.76.3,3.43.92,4.98,2.03.24.16.4.19.65,0,3.69-3.23,8.25-5,12.36-7.57,2.86-1.83,6.59-.78,9.06,1.24,2.61,2.04.03,4.38-1.66,6.07s-3.3,3.5-4.66,5.63c-.36.72-1.1,1.83.18,2.11,2.81.6,5.52,1.61,8.06,2.94,3.19,1.63,5.93,3.79,2.72,7-.13.12-.28.24-.43.32-3.94,2.07-8.73,1.94-13.09,2.16-5.24.27-10.74,2.05-16,3.54-.22.07-.26-.13-.09-.19,4.66-1.75,11.57-3.88,15.7-7.31Z"/>
      <path class="cls-2" d="M193.9,32.87c3.81-1.72,9.81-2.95,15.26-2.95,18.26,0,32.42,6.62,32.42,23.3l.02,29.97c0,1.66-1.35,3.01-3.01,3.02h-20.67c-1.66.02-3.01-1.33-3.02-3l-.02-34.4c0-6.62-3.54-11.53-10.36-11.53-2.45,0-5.18.49-7.9,1.72-3.81,1.72-7.36-4.17-2.72-6.13ZM345.11,169.97c-2.73,1.36-5.45,1.91-7.9,1.91-6.81,0-10.36-5.45-10.36-12.8V40.51c0-.89.7-1.62,1.59-1.66,6.37-.29,11.49-.75,11.49-.75,4.63-.27,4.09-7.35-.54-7.08,0,0-16.62,1.09-25.34,1.09l-11.11-.24c-.93-.02-1.7.73-1.7,1.66v77.59c0,37.87-23.43,60.49-42.5,60.49-6.29,0-12.18-2.41-15.15-9.82-.48-1.2-1.66-1.97-2.95-1.97h-18.11c-2.28,0-3.7,2.49-2.52,4.45,6.66,11.04,19.34,15.79,35.19,15.79,17.17,0,34.6-10.63,46.05-28.88v3c0,18.53,14.17,25.88,31.88,25.88,5.73,0,10.9-1.36,14.71-3.27,4.63-2.18,1.09-8.72-2.72-6.81Z"/>
      <path class="cls-1" d="M193.9,32.87c3.81-1.72,9.81-2.95,15.26-2.95,18.26,0,32.42,6.62,32.42,23.3l.02,29.97c0,1.66-1.35,3.01-3.01,3.02h-20.67c-1.66.02-3.01-1.33-3.02-3l-.02-34.4c0-6.62-3.54-11.53-10.36-11.53-2.45,0-5.18.49-7.9,1.72-3.81,1.72-7.36-4.17-2.72-6.13ZM345.11,169.97c-2.73,1.36-5.45,1.91-7.9,1.91-6.81,0-10.36-5.45-10.36-12.8V40.51c0-.89.7-1.62,1.59-1.66,6.37-.29,11.49-.75,11.49-.75,4.63-.27,4.09-7.35-.54-7.08,0,0-16.62,1.09-25.34,1.09l-11.11-.24c-.93-.02-1.7.73-1.7,1.66v77.59c0,37.87-23.43,60.49-42.5,60.49-6.29,0-12.18-2.41-15.15-9.82-.48-1.2-1.66-1.97-2.95-1.97h-18.11c-2.28,0-3.7,2.49-2.52,4.45,6.66,11.04,19.34,15.79,35.19,15.79,17.17,0,34.6-10.63,46.05-28.88v3c0,18.53,14.17,25.88,31.88,25.88,5.73,0,10.9-1.36,14.71-3.27,4.63-2.18,1.09-8.72-2.72-6.81Z"/>
    </g>
    <path class="cls-2" d="M127.53,44.42c-2.02-2.9-.12-6.91,3.41-7.17,2.14-.16,3.67-.29,3.67-.29,4.73-.55,4.18-7.51-.56-7.24,0,0-16.43,1.11-26.17,1.11s-26.17-1.11-26.17-1.11c-4.73-.28-5.29,6.96-.56,7.24,0,0,4.58.4,8.68.69,1.38.1,2.64.82,3.43,1.95l53.05,76.35c.53.77.82,1.68.82,2.61v49.05c0,2.43-1.9,4.43-4.33,4.57-5.07.28-9.03.63-9.03.63-4.73.28-4.18,7.52.56,7.24,0,0,16.7-1.11,26.17-1.11s26.17,1.11,26.17,1.11c4.73.28,5.29-6.68.56-7.24,0,0-3.84-.35-9.03-.63-2.43-.13-4.33-2.14-4.33-4.57v-28.48c0-8.39,1.12-15.47,2.71-21.37.35-1.3.11-2.69-.66-3.8l-48.38-69.54Z"/>
    <path class="cls-1" d="M127.53,44.42c-2.02-2.9-.12-6.91,3.41-7.17,2.14-.16,3.67-.29,3.67-.29,4.73-.55,4.18-7.51-.56-7.24,0,0-16.43,1.11-26.17,1.11s-26.17-1.11-26.17-1.11c-4.73-.28-5.29,6.96-.56,7.24,0,0,4.58.4,8.68.69,1.38.1,2.64.82,3.43,1.95l53.05,76.35c.53.77.82,1.68.82,2.61v49.05c0,2.43-1.9,4.43-4.33,4.57-5.07.28-9.03.63-9.03.63-4.73.28-4.18,7.52.56,7.24,0,0,16.7-1.11,26.17-1.11s26.17,1.11,26.17,1.11c4.73.28,5.29-6.68.56-7.24,0,0-3.84-.35-9.03-.63-2.43-.13-4.33-2.14-4.33-4.57v-28.48c0-8.39,1.12-15.47,2.71-21.37.35-1.3.11-2.69-.66-3.8l-48.38-69.54Z"/>
  </g>
  <g>
    <path class="cls-4" d="M259.46,321.93c.97-1.69,1.56-3.31,1.58-4.87.01-1.29-.49-1.7-.48-2.92s.86-2.64,2.71-2.62c1.34.01,1.78,1.03,2.34,2.12s1.13,2.18,3.17,2.2c2.3.02,4.94-2.19,6.49-4.21.71-1.01,2.1.22,1.39,1.1-2.52,3.3-6.51,6.17-10.47,6.14-1.47-.01-2.68-.57-3.37-.98-.4,2.03-1.19,3.99-2.22,5.4l4.23,5.06,3.32.3c1.15.15,1,1.91-.15,1.83,0,0-3.64-.31-6-.33l-3.32.04-2.02-2.46c-2.64,2.01-5.46,3.07-9.92,3.02-7.72-.07-13.04-4.53-12.99-10.16.05-5.69,5.32-8.56,9.66-8.86l-2.34-2.8c-1.89-2.26-2.9-3.96-2.88-6.27.07-6.85,6.98-9.29,12.73-9.23,6.58.06,8.33,3.81,8.3,6.66-.03,3.46-2.48,6.01-4.97,5.99-1.66-.02-2.86-1.32-2.85-2.87.02-1.56,1.17-2.57,2.39-2.82,1.34-.26,2.24-1.06,2.26-2.28.01-1.22-1.19-2.72-4.63-2.76-4.72-.05-7.49,2.5-7.52,5.62-.02,2.24,1.56,4.08,2.63,5.38l12.94,15.58ZM244.67,313.31c-2.5,1.33-4.13,4.1-4.16,7.55-.04,4.27,3.63,7.9,7.97,7.94,2.3.02,4.73-.84,6.98-2.44l-10.79-13.05Z"/>
    <path class="cls-4" d="M275.84,308.08c-2.48,1.38-3.64,3.82-5.56,4.12-1.34.2-2.66-.42-2.84-1.71-.11-.83.26-1.61,1.13-1.74.52-.08,1.17.33,1.26.97.07.52-.17.75-.11,1.15.04.31.33.45.73.39.76-.11,1.35-1.18,1.24-2.05s-.86-1.57-1.57-2.44c-.56-.67-1.11-1.44-1.24-2.39-.19-1.42.59-2.73,2.01-2.95,1.08-.16,1.92.37,2.45,1.01.3-.45.36-1.5.19-2.39-.11.05-.23.07-.34.08-1.6.24-3.12-.53-4.01-1.85-.12.18-.28.36-.38.47-.49.55-1.19,1.09-2.53,1.29-2.35.36-3.93-1.01-4.5-2.37-.22-.5.45-.86.72-.39.35.61.96,1.18,2.18.99.87-.13,1.43-.63,1.9-1.07.55-.56,1.11-1.21,2.22-1.37,2.53-.38,4.59,1.29,5.28,3.17,1.14-.58,1.49-1.74,1.37-2.63-.11-.8-.6-1.14-1.17-1.24-.58-.1-1.12-.43-1.23-1.2s.42-1.29,1.12-1.4c1.34-.2,2.46,1.08,2.64,2.5.27,2.01-.84,3.97-2.51,4.79.19.98.13,1.87,0,2.46.37-.37.86-.67,1.5-.76,1.34-.2,2.6.83,2.8,2.35.27,2.01-.88,3.19-2.76,4.23ZM270.49,297.09c-.35.05-.59.22-.82.53.69,1.19,2,1.9,3.4,1.69l.26-.04c-.5-1.34-1.79-2.34-2.84-2.18Z"/>
    <path class="cls-4" d="M162.8,331.48c-1.86,0-5.24-.35-7.86-1.66-1.45,1.17-3.52,1.66-5.93,1.66-1.38,0-2.9-.35-3.86-.83-1.17-.55-.28-2.21.69-1.72.69.35,1.38.48,2,.48,1.72,0,2.62-1.38,2.62-3.24v-30.42c-1.79-.07-3.31-.21-3.31-.21-1.17-.14-1.03-1.86.14-1.79,0,0,4.07.28,6.41.28,3.93,0,5.86-.41,10.07-.41,2.21,0,4.9.48,7.04,1.66,3.31,1.79,5.38,4.69,5.38,7.79,0,3.59-2.76,6.76-6.69,8.35,5.31,1.17,10,3.93,10,9.52s-5.73,10.55-16.69,10.55ZM160.6,312.37c-1.24,0-1.24-1.86,0-1.86,5.93,0,9.1-3.45,9.1-7.52,0-2.34-1.17-4.55-2.97-5.93-1.24-.97-2.97-1.59-5.11-1.59-1.03,0-3.31.21-4.62.35v29.11c0,1.38-.28,2.48-.76,3.38,2.07,1.04,4.9,1.31,6.69,1.31,6.14,0,9.52-3.59,9.52-8.76,0-6.97-6.07-8.49-11.86-8.49Z"/>
    <path class="cls-4" d="M295.72,331.03c-1.84,0-4.36-.34-7.08-1.64-1.5,1.16-3.54,1.64-5.92,1.64-1.36,0-2.86-.34-3.81-.82-1.16-.55-.27-2.18.68-1.7.68.34,1.36.48,1.97.48,1.7,0,2.59-1.36,2.59-3.2v-30.04c-1.77-.07-3.27-.21-3.27-.21-1.16-.14-1.02-1.84.14-1.77,0,0,4.02.27,6.47.27,3.95,0,6.06-.41,9.4-.41,4.29,0,8.51,1.36,11.99,4.15,4.49,3.61,7.15,8.65,7.15,14.44,0,10.22-9.13,18.8-20.3,18.8ZM303.96,299.5c-2.45-2.59-5.38-4.02-8.85-4.02-1.29,0-2.86.2-4.29.34v28.74c0,1.36-.27,2.45-.82,3.34,2.18,1.09,4.16,1.29,5.86,1.29,8.17,0,13.14-7.83,13.14-16,0-5.79-2.04-10.56-5.04-13.69Z"/>
    <path class="cls-4" d="M222.52,331.58c-4.38,0-8.77-1.78-12.38-6.51l-6.14-8.02-7.51,9.8c3.22.13,6.73.52,6.73.52,1.65.25,1.46,3.43-.2,3.31,0,0-5.37-.51-8.88-.51s-8.87.51-8.87.51c-1.66.12-1.86-3.19-.2-3.31,0,0,5.26-.52,7.61-.64l9.36-12.23-12.96-17.2c-1.95-.12-4-.38-4-.38-1.66-.12-1.46-3.43.2-3.31,0,0,5.46.51,8.87.51s8.88-.51,8.88-.51c1.66-.12,1.85,3.06.2,3.31,0,0-1.95.26-3.22.38l7.51,10.06,7.61-9.94c-3.12-.12-6.73-.51-6.73-.51-1.65-.12-1.46-3.43.2-3.31,0,0,5.46.51,8.88.51s8.87-.51,8.87-.51c1.66-.12,1.86,3.06.2,3.31,0,0-5.07.51-7.61.64l-9.45,12.36,11.69,15.54c1.46,1.92,2.34,2.29,3.61,2.29.87,0,1.85-.25,2.83-.89,1.37-.89,2.63,2.17.98,3.19-1.37.89-3.32,1.54-6.05,1.54Z"/>
  </g>
  <g>
    <path class="cls-4" d="M57.34,271.05s3.16-.28,6.6-.41v-27.12l-27.25-39.22c-2.2-.13-5.37-.41-5.37-.41-2.33-.13-2.06-3.71.28-3.57,0,0,8.26.55,12.93.55s12.94-.55,12.94-.55c2.34-.13,2.61,3.31.27,3.57,0,0-3.29.28-5.77.41l23.95,34.55c.82-1.93,2.06-4.27,3.71-7.03,12.53-20.09,23.26-32.06,32.62-32.06,3.85,0,5.92,2.75,5.92,5.64,0,3.72-2.34,5.51-6.05,5.78-13.49.96-20.92,8.67-29.18,22.57-1.79,3.03-5.78,9.5-5.78,20.64v16.25c3.57.13,6.61.41,6.61.41,2.33.27,2.06,3.71-.28,3.57,0,0-8.12-.55-12.93-.55s-12.94.55-12.94.55c-2.34.13-2.61-3.44-.27-3.57Z"/>
    <path class="cls-4" d="M155.73,275.59c-22.02,0-39.77-16.93-39.77-37.85s17.75-37.98,39.77-37.98,39.78,17.07,39.78,37.98-17.76,37.85-39.78,37.85ZM154.49,203.47c-14.46,0-23.53,12.81-23.53,31.52s11.15,36.88,26.42,36.88c13.9,0,23.12-13.35,23.12-31.24s-10.74-37.16-26.01-37.16Z"/>
    <path class="cls-4" d="M245.22,247.79l-26.29-11.56c-5.92-2.61-12.66-6.33-12.66-15.54,0-15.55,19.27-20.92,31.66-20.92,16.79,0,22.3,8.39,22.3,15.55s-5.23,12.25-11.02,12.25c-3.16,0-5.78-2.62-5.78-5.78s2.48-5.23,5.1-5.78c2.89-.55,4.4-1.93,4.4-4.27,0-2.75-2.89-8.26-14.72-8.26-9.64,0-18.58,4.68-18.58,12.94,0,6.47,4.95,9.22,9.21,11.15l26.15,11.55c5.92,2.62,12.8,6.47,12.8,15.55,0,14.46-17.2,20.92-31.51,20.92-15.97,0-32.21-8.26-32.21-20.24,0-4.81,3.85-7.15,7.43-7.15,4.54,0,6.33,3.44,7.98,8.11,2.34,6.61,5.51,15.55,18.17,15.55,10.05,0,16.8-6.19,16.8-13.07,0-6.2-4.95-9.09-9.22-11.02Z"/>
    <path class="cls-4" d="M333.57,271.05s3.16-.28,6.6-.41v-31.38c-8.39,2.88-21.74,4.4-29.72,4.4h-2.06v26.97c3.57.13,6.6.41,6.6.41,2.34.27,2.06,3.71-.28,3.57,0,0-8.11-.55-12.93-.55-4.4,0-12.8.55-12.8.55-2.34.13-2.62-3.44-.28-3.57,0,0,3.17-.28,6.61-.41v-27.12c-13.35,0-21.47-4.67-21.47-10.46,0-3.44,2.34-5.92,5.5-5.92s4.27,2.06,6.61,4.95c1.37,1.93,4.26,4.95,9.36,6.47v-34.27c-3.59-.13-6.61-.41-6.61-.41-2.34-.13-2.06-3.71.28-3.57,0,0,8.39.55,12.8.55,4.82,0,12.93-.55,12.93-.55,2.34-.13,2.62,3.31.28,3.57,0,0-3.03.28-6.6.41v35.65h2.06c8.66,0,21.87-1.65,29.72-4.68v-30.96c-3.44-.13-6.6-.41-6.6-.41-2.34-.13-2.06-3.71.28-3.57,0,0,8.25.55,12.93.55s12.8-.55,12.8-.55c2.34-.13,2.61,3.31.28,3.57,0,0-3.04.28-6.61.41v66.34c3.57.13,6.61.41,6.61.41,2.33.27,2.06,3.71-.28,3.57,0,0-8.11-.55-12.8-.55s-12.93.55-12.93.55c-2.34.13-2.62-3.44-.28-3.57Z"/>
    <path class="cls-4" d="M393.9,216.55c2.61-7.43,4.67-13.08,4.67-19.26,0-5.1-2.2-11.98-4.95-11.98-1.65,0-1.23,1.66-1.79,3.44-.82,2.89-3.29,4.4-6.05,4.4-4.27,0-7.71-3.29-7.71-7.15,0-4.95,4.68-7.99,9.92-7.99,7.56,0,14.31,8.54,14.31,19.27,0,6.47-2.21,12.66-4.82,20.36-4.12,11.84-5.37,19.54-5.37,28.35v24.64c3.57.13,6.61.41,6.61.41,2.33.27,2.06,3.71-.28,3.57,0,0-8.26-.55-12.53-.55-3.99,0-12.38.55-12.38.55-2.34.13-2.61-3.44-.28-3.57,0,0,3.17-.28,6.61-.41v-57.12c0-5.5-1.38-9.36-5.23-9.36-2.48,0-2.48-3.72,0-3.72,11.98,0,16.8,11.43,17.48,21.75.41-1.66,1.24-3.85,1.79-5.65Z"/>
  </g>
</svg>