<?xml version="1.0" encoding="UTF-8"?>
<svg id="Logo" xmlns="http://www.w3.org/2000/svg" viewBox="0 0 432 361.29">
  <defs>
    <style>
      .cls-1 {
        fill: #7f2322;
      }
    </style>
  </defs>
  <g>
    <path class="cls-1" d="M229.9,148.95l-2.52-.84c-.55.78-1.08,1.53-1.53,2.13-1.15,1.52-2.45,3.49-2.79,4.06-.34.57.37,1.68-2.63,2.72-.9.31-2.29-.09-2.8-.57-1.28-1.21-2.49-2.82-1.52-3.94,1.46-1.68.83-1.83-.72-1.83-.68,0-1.5.24-2.12.61-1.21.72-2.14,1.86-2.72,3.14-.77,1.62.62,3.13,1.99,3.81.45.22.96.55,1.45.66,8.43,1.68,15.55-2,15.9-9.94ZM241.41,154.05c.8-.66.5-1.96-.5-2.25-.51-.15-1.02-.32-1.51-.54-.91-.42-2.16-1.76-2.53-3.09-.93-3.34,2.38-6.13,3.78-9.06.02-.04-.02-.08-.06-.06-.71.22-1.36.32-2.04.57-1.5.52-3.08.95-4.37,1.91-.24.2-.51.41-.77.68-.39.4-.46,1.01-.2,1.5.46.87.93,1.92.95,2.76.98,3.42-1.13,6.88-3.28,9.38-.05.05-.09.1-.15.15-2.8,2.52-6.33,3.99-10.02,4.66-.03,0-.06,0-.09.01-2.96.37-6.23,1.03-9.02-.37-2.49-1.41-3.7-4.96-1.74-7.27,2.03-2.87,5.95-5.55,8.83-4.79,1.74.46,1.51,1.48,2.58,1.48,1.01,0,3.72-2.5,5.83-4.4.79-.71.46-2.02-.58-2.26-3.73-.85-8.08,1.47-11.21,3.34-.96.54-2.13.83-3.08,1.58-.44.35-.69.94-1.05,1.36-.07.08-.16.16-.25.22-1.17.79-2.34.75-3.79-1.88-1.37-2.5,2.37-3.69,5.07-4.19.08-.01.16-.03.23-.06,2.57-.97,6.27-4.13,8.54-6-.12-.03-.09-.03-.24-.05-.9.28-3.47,1.77-4.02,1.11-.91-1.09-2.82-3.15-1.99-4.75.7-1.03,2.07-1.46,3.14-2.03,1.67-.85,4.35-3.13,5.85-4.25.29-.21.14-.24-.16-.3-3.61,1.03-4.59,1.59-6.24-1.96-.68-1.46,1.88-2.47,2.89-2.87.89-.36,1.72-.99,2.54-1.5,1.65-1.03,3.41-1.96,4.97-3.12.81-.61,1.74-1.32,2.55-2.11.93-.92.06-2.52-1.21-2.21-1.06.26-2.1.67-2.86,1.01-1.71.77-4.04,2.36-5.13,3.89-1.14,1.59-.62,3.47-2.63,3.74-2.26.33-4.24-1.31-5.29-3.17-1.54-2.29-3.23-3.92-1.36-6.75.69-.85,1.78-1.27,2.64-.52,1.35.82,2.27,1.99,3.07,3.37,1.05,1.81,12.72-3.83,14.53-4.99,2.16-1.27,3.81-.94,5.89.23,1.82.93,7.03,4.45,2.92,5.51-.15.04-.3.1-.43.19-1.89,1.28-3.69,2.63-5.67,3.75-.85.44-1.91,1-2.65,1.59,0,0,0,.12,0,.12.87.83,2.16,1.28,3.13,2.01.7.52.69,1.59-.02,2.1-.8.57-1.91.77-2.9.87-1.48.28-3.05,1.14-4.26,1.91-1.87,1.25-3.58,2.28-5.44,3.55.07.37,1.74-.42,2.01-.58,1.76-1.2,5.04.11,6.59,1.32,2.09,1.48,1.46,2.24-.57,3.09-.03.01-.07.03-.1.05-1.13.61-2.39,1.26-3.51,2.03-.96.66-.67,2.18.48,2.38,1.37.23,2.67.72,3.89,1.59.18.13.31.15.51,0,2.88-2.53,6.44-3.9,9.65-5.91,2.23-1.43,5.15-.61,7.08.97,2.04,1.59.02,3.42-1.29,4.74-1.37,1.37-2.58,2.73-3.64,4.4-.28.57-.86,1.43.14,1.64,2.19.47,4.31,1.26,6.29,2.3,2.49,1.27,4.63,2.96,2.12,5.46-.1.1-.22.18-.34.25-3.08,1.61-6.82,1.51-10.22,1.69-4.09.21-8.38,1.6-12.49,2.77-.17.05-.2-.1-.07-.15,3.64-1.37,9.03-3.03,12.26-5.71Z"/>
    <path class="cls-1" d="M198.74,65.25c2.98-1.34,7.66-2.3,11.91-2.3,14.26,0,25.32,5.17,25.32,18.19v23.4c.02,1.3-1.04,2.35-2.34,2.35h-16.14c-1.3.01-2.35-1.04-2.35-2.34v-26.86c-.01-5.17-2.78-9-8.1-9-1.92,0-4.04.38-6.17,1.34-2.98,1.34-5.75-3.25-2.13-4.78ZM316.82,172.31c-2.13,1.06-4.26,1.49-6.17,1.49-5.32,0-8.09-4.25-8.09-10v-92.58c0-.69.55-1.27,1.24-1.3,4.97-.22,8.97-.59,8.97-.59,3.62-.21,3.19-5.74-.42-5.53,0,0-12.98.85-19.79.85l-8.68-.19c-.73-.02-1.33.57-1.33,1.3v60.59c0,29.57-18.3,47.23-33.19,47.23-4.91,0-9.51-1.88-11.83-7.67-.38-.94-1.3-1.54-2.31-1.54h-14.14c-1.78,0-2.89,1.95-1.97,3.47,5.2,8.62,15.1,12.33,27.48,12.33,13.41,0,27.02-8.3,35.96-22.55v2.34c0,14.47,11.06,20.21,24.89,20.21,4.47,0,8.51-1.06,11.49-2.55,3.62-1.7.85-6.81-2.13-5.32Z"/>
    <path class="cls-1" d="M198.74,65.25c2.98-1.34,7.66-2.3,11.91-2.3,14.26,0,25.32,5.17,25.32,18.19v23.4c.02,1.3-1.04,2.35-2.34,2.35h-16.14c-1.3.01-2.35-1.04-2.35-2.34v-26.86c-.01-5.17-2.78-9-8.1-9-1.92,0-4.04.38-6.17,1.34-2.98,1.34-5.75-3.25-2.13-4.78ZM316.82,172.31c-2.13,1.06-4.26,1.49-6.17,1.49-5.32,0-8.09-4.25-8.09-10v-92.58c0-.69.55-1.27,1.24-1.3,4.97-.22,8.97-.59,8.97-.59,3.62-.21,3.19-5.74-.42-5.53,0,0-12.98.85-19.79.85l-8.68-.19c-.73-.02-1.33.57-1.33,1.3v60.59c0,29.57-18.3,47.23-33.19,47.23-4.91,0-9.51-1.88-11.83-7.67-.38-.94-1.3-1.54-2.31-1.54h-14.14c-1.78,0-2.89,1.95-1.97,3.47,5.2,8.62,15.1,12.33,27.48,12.33,13.41,0,27.02-8.3,35.96-22.55v2.34c0,14.47,11.06,20.21,24.89,20.21,4.47,0,8.51-1.06,11.49-2.55,3.62-1.7.85-6.81-2.13-5.32Z"/>
    <path class="cls-1" d="M146.91,74.27c-1.58-2.27-.09-5.39,2.66-5.6,1.67-.13,2.86-.23,2.86-.23,3.7-.43,3.26-5.87-.44-5.65,0,0-12.83.87-20.43.87s-20.43-.87-20.43-.87c-3.69-.22-4.13,5.43-.44,5.65,0,0,3.57.31,6.78.54,1.08.08,2.06.64,2.68,1.52l41.42,59.62c.42.6.64,1.31.64,2.04v38.3c0,1.9-1.49,3.46-3.38,3.57-3.96.22-7.05.49-7.05.49-3.7.22-3.26,5.87.44,5.65,0,0,13.04-.87,20.43-.87s20.43.87,20.43.87c3.69.22,4.13-5.22.44-5.65,0,0-3-.27-7.05-.49-1.9-.1-3.38-1.67-3.38-3.57v-22.24c0-6.55.87-12.08,2.12-16.69.27-1.02.09-2.1-.52-2.96l-37.78-54.3Z"/>
    <path class="cls-1" d="M146.91,74.27c-1.58-2.27-.09-5.39,2.66-5.6,1.67-.13,2.86-.23,2.86-.23,3.7-.43,3.26-5.87-.44-5.65,0,0-12.83.87-20.43.87s-20.43-.87-20.43-.87c-3.69-.22-4.13,5.43-.44,5.65,0,0,3.57.31,6.78.54,1.08.08,2.06.64,2.68,1.52l41.42,59.62c.42.6.64,1.31.64,2.04v38.3c0,1.9-1.49,3.46-3.38,3.57-3.96.22-7.05.49-7.05.49-3.7.22-3.26,5.87.44,5.65,0,0,13.04-.87,20.43-.87s20.43.87,20.43.87c3.69.22,4.13-5.22.44-5.65,0,0-3-.27-7.05-.49-1.9-.1-3.38-1.67-3.38-3.57v-22.24c0-6.55.87-12.08,2.12-16.69.27-1.02.09-2.1-.52-2.96l-37.78-54.3Z"/>
    <path class="cls-1" d="M249.94,290.97c.76-1.32,1.22-2.58,1.23-3.8,0-1.01-.39-1.33-.38-2.28s.67-2.06,2.11-2.04c1.05.01,1.39.81,1.83,1.66s.88,1.7,2.48,1.72c1.79.02,3.86-1.71,5.07-3.29.56-.79,1.64.17,1.09.86-1.97,2.57-5.08,4.82-8.17,4.79-1.15-.01-2.09-.44-2.64-.77-.31,1.59-.93,3.11-1.74,4.22l3.3,3.95,2.59.24c.9.11.78,1.49-.11,1.43,0,0-2.84-.24-4.68-.26l-2.59.03-1.58-1.92c-2.06,1.57-4.26,2.39-7.75,2.36-6.03-.06-10.19-3.54-10.14-7.93.04-4.45,4.15-6.68,7.55-6.92l-1.82-2.19c-1.48-1.76-2.26-3.09-2.25-4.89.05-5.35,5.45-7.25,9.94-7.21,5.13.05,6.5,2.97,6.48,5.2-.03,2.7-1.94,4.69-3.88,4.67-1.3-.01-2.23-1.03-2.22-2.24.01-1.22.92-2,1.87-2.21,1.05-.2,1.75-.83,1.76-1.78,0-.95-.93-2.13-3.62-2.15-3.69-.04-5.85,1.96-5.88,4.39-.02,1.75,1.22,3.19,2.05,4.2l10.1,12.17ZM238.39,284.24c-1.95,1.04-3.22,3.2-3.25,5.9-.03,3.34,2.83,6.17,6.22,6.2,1.79.02,3.7-.65,5.45-1.91l-8.43-10.19Z"/>
    <path class="cls-1" d="M262.72,280.16c-1.94,1.08-2.84,2.99-4.34,3.21-1.04.16-2.08-.32-2.22-1.34-.09-.65.2-1.26.88-1.36.41-.06.91.25.98.76.05.41-.13.59-.09.9.03.24.26.35.57.31.59-.09,1.06-.92.97-1.6s-.67-1.23-1.23-1.9c-.44-.52-.87-1.12-.97-1.87-.15-1.11.46-2.13,1.57-2.3.84-.13,1.5.29,1.91.79.23-.35.28-1.17.15-1.87-.09.04-.18.05-.27.07-1.25.19-2.44-.42-3.13-1.44-.1.14-.22.28-.3.36-.38.43-.93.85-1.97,1.01-1.84.28-3.07-.79-3.51-1.85-.17-.39.35-.67.56-.31.27.48.75.92,1.7.78.68-.1,1.12-.49,1.49-.84.43-.43.87-.94,1.73-1.07,1.97-.3,3.58,1.01,4.13,2.47.89-.45,1.16-1.36,1.07-2.05-.08-.63-.47-.89-.92-.97-.45-.08-.88-.33-.96-.94s.33-1.01.87-1.09c1.04-.16,1.92.84,2.07,1.95.21,1.57-.65,3.1-1.96,3.74.15.76.1,1.46,0,1.92.29-.29.67-.52,1.17-.6,1.04-.16,2.03.65,2.19,1.83.21,1.57-.69,2.49-2.15,3.3ZM258.55,271.57c-.27.04-.46.17-.64.42.54.93,1.56,1.48,2.65,1.32l.2-.03c-.39-1.05-1.4-1.83-2.22-1.7Z"/>
    <path class="cls-1" d="M174.46,298.43c-1.45,0-4.09-.27-6.14-1.29-1.13.91-2.75,1.29-4.63,1.29-1.08,0-2.26-.27-3.02-.65-.92-.43-.22-1.72.54-1.35.54.27,1.08.38,1.56.38,1.35,0,2.05-1.08,2.05-2.53v-23.76c-1.4-.05-2.59-.16-2.59-.16-.91-.11-.81-1.45.11-1.4,0,0,3.18.22,5.01.22,3.07,0,4.58-.32,7.86-.32,1.72,0,3.82.38,5.49,1.29,2.58,1.4,4.2,3.66,4.2,6.09,0,2.8-2.15,5.28-5.22,6.52,4.15.92,7.81,3.07,7.81,7.43s-4.47,8.24-13.04,8.24ZM172.74,283.51c-.97,0-.97-1.45,0-1.45,4.63,0,7.11-2.69,7.11-5.87,0-1.83-.91-3.55-2.32-4.63-.97-.76-2.32-1.24-3.99-1.24-.81,0-2.58.16-3.61.27v22.73c0,1.08-.22,1.94-.59,2.64,1.62.81,3.82,1.02,5.22,1.02,4.79,0,7.43-2.8,7.43-6.84,0-5.44-4.74-6.63-9.27-6.63Z"/>
    <path class="cls-1" d="M278.25,298.08c-1.44,0-3.4-.27-5.53-1.28-1.17.9-2.77,1.28-4.63,1.28-1.06,0-2.23-.27-2.98-.64-.9-.43-.21-1.7.53-1.33.53.27,1.06.37,1.54.37,1.33,0,2.02-1.06,2.02-2.5v-23.46c-1.38-.05-2.55-.16-2.55-.16-.9-.11-.8-1.44.11-1.38,0,0,3.14.21,5.05.21,3.08,0,4.73-.32,7.34-.32,3.35,0,6.65,1.06,9.36,3.24,3.51,2.82,5.58,6.75,5.58,11.28,0,7.98-7.13,14.68-15.85,14.68ZM284.69,273.46c-1.91-2.02-4.2-3.14-6.91-3.14-1.01,0-2.23.16-3.35.27v22.44c0,1.06-.21,1.91-.64,2.61,1.7.85,3.24,1.01,4.57,1.01,6.38,0,10.26-6.12,10.26-12.5,0-4.52-1.6-8.24-3.94-10.69Z"/>
    <path class="cls-1" d="M221.09,298.51c-3.42,0-6.85-1.39-9.67-5.08l-4.79-6.26-5.86,7.66c2.51.11,5.26.41,5.26.41,1.29.19,1.14,2.68-.15,2.58,0,0-4.19-.4-6.93-.4s-6.92.4-6.92.4c-1.3.1-1.45-2.49-.15-2.58,0,0,4.11-.41,5.94-.5l7.31-9.55-10.12-13.43c-1.52-.1-3.12-.3-3.12-.3-1.3-.1-1.14-2.68.15-2.58,0,0,4.27.4,6.92.4s6.93-.4,6.93-.4c1.3-.1,1.44,2.39.15,2.58,0,0-1.52.2-2.52.3l5.86,7.86,5.94-7.76c-2.44-.1-5.26-.4-5.26-.4-1.29-.1-1.14-2.68.15-2.58,0,0,4.27.4,6.93.4s6.92-.4,6.92-.4c1.3-.1,1.45,2.39.15,2.58,0,0-3.96.4-5.94.5l-7.38,9.65,9.13,12.14c1.14,1.5,1.83,1.79,2.82,1.79.68,0,1.44-.19,2.21-.7,1.07-.7,2.05,1.69.76,2.49-1.07.7-2.59,1.2-4.72,1.2Z"/>
    <path class="cls-1" d="M92.11,251.24s2.47-.22,5.15-.32v-21.18l-21.28-30.63c-1.72-.11-4.19-.32-4.19-.32-1.82-.11-1.61-2.9.22-2.79,0,0,6.45.43,10.1.43s10.11-.43,10.11-.43c1.83-.11,2.04,2.58.21,2.79,0,0-2.57.22-4.51.32l18.7,26.98c.64-1.51,1.61-3.33,2.9-5.49,9.78-15.69,18.17-25.04,25.47-25.04,3.01,0,4.62,2.14,4.62,4.4,0,2.91-1.83,4.31-4.73,4.52-10.54.75-16.34,6.77-22.79,17.62-1.4,2.36-4.52,7.42-4.52,16.12v12.69c2.79.11,5.16.32,5.16.32,1.82.21,1.61,2.9-.22,2.79,0,0-6.34-.43-10.1-.43s-10.11.43-10.11.43c-1.83.11-2.04-2.69-.21-2.79Z"/>
    <path class="cls-1" d="M168.93,254.79c-17.2,0-31.06-13.22-31.06-29.56s13.86-29.66,31.06-29.66,31.06,13.33,31.06,29.66-13.87,29.56-31.06,29.56ZM167.97,198.47c-11.29,0-18.38,10-18.38,24.62s8.71,28.8,20.63,28.8c10.85,0,18.05-10.42,18.05-24.4s-8.38-29.02-20.31-29.02Z"/>
    <path class="cls-1" d="M238.82,233.08l-20.53-9.03c-4.62-2.04-9.89-4.94-9.89-12.14,0-12.15,15.05-16.34,24.72-16.34,13.11,0,17.41,6.55,17.41,12.15s-4.09,9.56-8.6,9.56c-2.47,0-4.52-2.05-4.52-4.52s1.93-4.09,3.98-4.52c2.26-.43,3.44-1.51,3.44-3.33,0-2.14-2.26-6.45-11.5-6.45-7.53,0-14.51,3.66-14.51,10.11,0,5.05,3.87,7.2,7.19,8.71l20.42,9.02c4.62,2.05,9.99,5.05,9.99,12.15,0,11.29-13.43,16.34-24.61,16.34-12.47,0-25.15-6.45-25.15-15.8,0-3.75,3.01-5.58,5.8-5.58,3.54,0,4.94,2.69,6.23,6.34,1.83,5.16,4.31,12.15,14.18,12.15,7.85,0,13.12-4.83,13.12-10.2,0-4.84-3.87-7.1-7.2-8.6Z"/>
    <path class="cls-1" d="M307.81,251.24s2.47-.22,5.15-.32v-24.5c-6.55,2.25-16.98,3.44-23.21,3.44h-1.61v21.06c2.79.11,5.15.32,5.15.32,1.83.21,1.61,2.9-.22,2.79,0,0-6.34-.43-10.1-.43-3.44,0-9.99.43-9.99.43-1.83.11-2.05-2.69-.22-2.79,0,0,2.48-.22,5.16-.32v-21.18c-10.42,0-16.77-3.65-16.77-8.16,0-2.69,1.83-4.62,4.3-4.62s3.33,1.61,5.16,3.87c1.07,1.51,3.33,3.87,7.31,5.05v-26.76c-2.8-.11-5.16-.32-5.16-.32-1.83-.11-1.61-2.9.22-2.79,0,0,6.55.43,9.99.43,3.76,0,10.1-.43,10.1-.43,1.83-.11,2.05,2.58.22,2.79,0,0-2.36.22-5.15.32v27.84h1.61c6.76,0,17.08-1.29,23.21-3.66v-24.18c-2.69-.11-5.15-.32-5.15-.32-1.83-.11-1.61-2.9.22-2.79,0,0,6.44.43,10.1.43s9.99-.43,9.99-.43c1.83-.11,2.04,2.58.22,2.79,0,0-2.37.22-5.16.32v51.8c2.79.11,5.16.32,5.16.32,1.82.21,1.61,2.9-.22,2.79,0,0-6.34-.43-9.99-.43s-10.1.43-10.1.43c-1.83.11-2.05-2.69-.22-2.79Z"/>
    <path class="cls-1" d="M354.92,208.68c2.04-5.8,3.65-10.21,3.65-15.04,0-3.98-1.72-9.35-3.87-9.35-1.29,0-.96,1.3-1.4,2.69-.64,2.26-2.57,3.44-4.73,3.44-3.33,0-6.02-2.57-6.02-5.58,0-3.87,3.66-6.24,7.74-6.24,5.91,0,11.17,6.67,11.17,15.05,0,5.05-1.72,9.89-3.76,15.9-3.22,9.25-4.19,15.26-4.19,22.14v19.24c2.79.11,5.16.32,5.16.32,1.82.21,1.61,2.9-.22,2.79,0,0-6.45-.43-9.78-.43-3.12,0-9.67.43-9.67.43-1.83.11-2.04-2.69-.22-2.79,0,0,2.48-.22,5.16-.32v-44.6c0-4.3-1.08-7.31-4.09-7.31-1.93,0-1.93-2.91,0-2.91,9.35,0,13.12,8.93,13.65,16.99.32-1.3.97-3.01,1.4-4.41Z"/>
  </g>
  <path class="cls-1" d="M390.29,37.71c2.21,0,4,1.79,4,4v277.88c0,2.21-1.79,4-4,4H41.71c-2.21,0-4-1.79-4-4V41.71c0-2.21,1.79-4,4-4h348.59M390.29,29.71H41.71c-6.63,0-12,5.37-12,12v277.88c0,6.63,5.37,12,12,12h348.59c6.63,0,12-5.37,12-12V41.71c0-6.63-5.37-12-12-12h0Z"/>
</svg>