<?xml version="1.0" encoding="UTF-8"?>
<svg id="Logo" xmlns="http://www.w3.org/2000/svg" viewBox="0 0 393.02 432">
  <defs>
    <style>
      .cls-1 {
        fill: #181a1b;
      }
    </style>
  </defs>
  <path class="cls-1" d="M192.86,290.48l-.92-.23c-7.6,9.93-18.16,25.86-25.56,35.61-8.14,10.73-17.28,24.61-19.7,28.63-2.41,4,2.63,11.84-18.58,19.19-6.39,2.22-16.15-.61-19.75-4.02-9.01-8.51-17.6-19.92-10.72-27.81,10.34-11.86,5.85-12.93-5.06-12.93-4.81,0-10.6,1.71-14.97,4.28-8.52,5.08-15.14,13.12-19.2,22.18-5.42,11.46,4.39,22.13,14.06,26.91,3.16,1.55,6.8,3.89,10.27,4.63,68.17,13.6,124.15-22.48,110.13-96.44ZM288.94,339.88c-8.78-2.61-17.64-4.19-25.84-7.97-6.5-3-15.51-12.64-18.16-22.18-6.65-23.93,17.03-43.96,27.07-64.97.14-.28-.17-.57-.45-.42-5.07,1.58-9.76,2.29-14.66,4.06-10.73,3.71-22.1,6.83-31.32,13.7-3.19,2.61-7.15,5.68-9.72,10.57,3.86,6.76,9.41,17.02,9.58,24.83,7.11,24.76-8.39,49.82-24.01,67.8-20.26,18.49-45.91,29.14-72.69,33.98-21.31,2.67-44.91,7.5-65-2.58-17.84-10.11-26.55-35.58-12.44-52.14,14.53-20.57,42.68-39.8,63.33-34.38,12.45,3.27,10.85,10.61,18.48,10.61,9.18,0,38.09-28.98,52.84-41.29-29.32-19.25-68.69,1.47-95.58,17.49-6.86,3.89-15.3,5.93-22.06,11.33-3.44,2.75-5.34,7.58-8.36,10.6-8.76,6.32-17.4,6.85-28.14-12.82-9.96-18.22,17.82-26.74,37.19-30.2,18.49-6.6,45.54-29.7,62.02-43.29-.87-.19-.62-.19-1.7-.39-6.48,2.04-24.85,12.69-28.82,7.94-6.55-7.82-20.23-22.59-14.24-34.07,5.02-7.41,14.82-10.5,22.54-14.52,11.96-6.08,31.17-22.47,41.96-30.46,2.06-1.53,1.01-1.71-1.11-2.18-25.9,7.41-32.93,11.41-44.76-14.03-4.85-10.44,13.5-17.68,20.71-20.59,6.39-2.59,12.33-7.1,18.22-10.76,11.81-7.36,24.44-14.06,35.6-22.37,10.95-8.15,24.71-18.9,30.46-31.62-11.76-3.91-30.62,2.99-41.4,7.87-12.28,5.55-28.97,16.94-36.8,27.86-8.15,11.37-4.44,24.89-18.84,26.78-16.22,2.35-30.39-9.41-37.93-22.76-11.03-16.45-23.19-28.13-9.76-48.42,4.96-6.09,12.78-9.12,18.95-3.74,9.67,5.91,16.26,14.27,21.99,24.17,7.52,13,91.19-27.45,104.22-35.78,15.48-9.14,27.3-6.71,42.2,1.68,13.27,6.8,51.81,32.87,19.22,39.9-14.08,9.47-27.35,19.56-42.04,27.83-6.08,3.12-13.69,7.2-18.99,11.38,0,0,0,.88,0,.88,8.44,8.1,22.46,11.1,28.89,21.04-3.92,10.79-16.61,13.58-27.33,14.62-10.6,1.98-21.88,8.2-30.53,13.72-13.39,9-25.69,16.38-38.98,25.43.53,2.68,12.46-3,14.43-4.18,12.66-8.6,36.16.81,47.24,9.46,15.12,10.68,10.38,16.16-4.49,22.32-14.86,8.01-32.99,17.11-42.33,30.55,17.36-.43,33.68,2.27,48.14,12.65,1.32.92,2.24,1.08,3.63-.05,20.67-18.11,46.21-27.98,69.19-42.41,15.99-10.26,36.89-4.34,50.74,6.96,14.6,11.43.17,24.53-9.28,33.98-9.81,9.81-18.48,19.58-26.1,31.52-2,4.05-6.16,10.25,1,11.79,15.71,3.38,30.92,9.03,45.14,16.47,18.22,9.28,33.83,21.71,14.12,40.24-22.32,12.31-49.74,11.53-74.6,12.8-29.36,1.5-60.11,11.48-89.58,19.84-1.22.39-1.45-.71-.48-1.05,31.13-11.69,80.26-26.43,99.43-53.01Z"/>
</svg>